<svg id="svg" version="1.1" xmlns="http://www.w3.org/2000/svg" xmlns:xlink="http://www.w3.org/1999/xlink" width="400" height="400" viewBox="0, 0, 400,400"><g id="svgg"><path id="path0" d="M182.600 55.802 C 178.860 56.080,172.467 56.515,168.393 56.770 C 159.279 57.339,149.893 58.527,147.932 59.360 C 146.016 60.174,140.724 61.325,134.000 62.390 C 129.808 63.054,128.273 63.470,127.139 64.250 C 125.582 65.321,122.474 66.400,120.947 66.400 C 117.480 66.400,114.645 70.440,115.410 74.292 C 115.575 75.122,115.830 95.240,115.977 119.000 C 116.213 157.149,116.324 162.621,116.922 165.800 C 117.294 167.780,118.043 172.373,118.587 176.006 C 119.476 181.947,119.738 182.926,121.188 185.728 C 122.075 187.441,122.803 189.148,122.806 189.522 C 122.823 191.391,124.503 196.665,125.375 197.588 C 125.901 198.145,126.914 200.310,127.626 202.400 C 128.339 204.490,129.392 206.740,129.967 207.400 C 131.304 208.933,132.128 210.485,132.957 213.032 C 133.383 214.339,134.046 215.379,134.815 215.948 C 135.473 216.434,136.388 217.634,136.848 218.614 C 137.309 219.594,138.683 221.512,139.901 222.878 C 141.119 224.243,142.458 226.134,142.877 227.080 C 143.295 228.026,143.880 228.800,144.177 228.800 C 144.830 228.800,147.030 231.233,147.383 232.347 C 147.523 232.787,148.460 233.545,149.467 234.032 C 150.565 234.564,151.616 235.460,152.096 236.274 C 152.536 237.019,153.460 237.912,154.148 238.257 C 154.837 238.603,156.300 239.753,157.400 240.814 C 158.500 241.875,160.693 243.387,162.274 244.174 C 163.890 244.980,165.254 245.938,165.389 246.365 C 165.610 247.061,167.795 248.400,168.711 248.400 C 169.656 248.400,173.478 250.404,174.253 251.305 C 174.785 251.925,175.912 252.489,177.253 252.809 C 180.935 253.685,183.733 254.779,184.787 255.753 C 187.942 258.671,199.456 258.587,204.268 255.612 C 205.330 254.955,208.054 253.886,210.320 253.237 C 213.307 252.381,214.649 251.791,215.199 251.092 C 215.618 250.559,217.587 249.444,219.596 248.602 C 222.057 247.570,223.494 246.711,224.038 245.947 C 224.529 245.257,225.633 244.542,226.875 244.109 C 228.238 243.634,229.310 242.904,230.123 241.898 C 230.791 241.071,232.116 239.939,233.067 239.382 C 234.018 238.825,235.068 237.841,235.402 237.196 C 235.735 236.551,236.411 235.814,236.904 235.558 C 238.272 234.846,243.803 229.168,244.551 227.707 C 244.915 226.995,245.766 226.128,246.441 225.779 C 247.285 225.342,247.971 224.460,248.636 222.958 C 249.311 221.430,250.024 220.523,251.001 219.946 C 251.771 219.492,252.402 218.914,252.404 218.660 C 252.413 217.635,254.371 214.082,255.904 212.311 C 256.948 211.104,257.777 209.596,258.206 208.122 C 258.819 206.012,259.821 204.177,261.055 202.904 C 261.319 202.631,262.082 200.649,262.750 198.500 C 263.417 196.351,264.510 193.767,265.178 192.759 C 266.036 191.464,266.630 189.762,267.203 186.963 C 268.177 182.196,269.071 179.346,270.012 178.000 C 270.446 177.379,271.215 174.121,272.043 169.400 L 273.375 161.800 273.607 116.800 C 273.776 84.078,273.968 71.363,274.310 70.200 C 274.569 69.320,274.785 68.502,274.790 68.382 C 274.810 67.939,270.655 65.023,268.737 64.134 C 267.402 63.516,264.438 62.876,259.677 62.179 C 251.374 60.962,247.750 60.240,245.744 59.402 C 243.650 58.527,233.058 57.341,220.800 56.608 C 214.970 56.260,207.770 55.802,204.800 55.591 C 197.913 55.101,191.172 55.165,182.600 55.802 M249.271 99.263 C 250.701 99.810,250.883 100.447,250.558 103.750 C 250.263 106.738,249.951 107.224,247.226 108.937 C 246.470 109.411,245.480 110.508,245.026 111.373 C 244.572 112.238,243.660 113.236,243.000 113.591 C 242.287 113.974,241.433 114.997,240.895 116.112 C 240.397 117.144,239.497 118.294,238.895 118.668 C 238.293 119.043,237.064 120.125,236.164 121.074 L 234.527 122.800 198.923 122.800 C 160.533 122.800,161.268 122.841,160.109 120.657 C 158.233 117.122,159.048 102.662,161.241 100.560 L 162.452 99.400 204.193 99.200 C 227.150 99.090,246.071 98.863,246.238 98.696 C 246.549 98.384,247.378 98.539,249.271 99.263 M218.118 135.532 C 218.964 136.234,219.816 138.814,219.312 139.148 C 219.102 139.286,218.248 140.705,217.415 142.300 C 216.582 143.895,215.757 145.200,215.581 145.200 C 214.884 145.200,212.721 147.386,211.979 148.842 C 211.546 149.690,210.648 150.665,209.984 151.008 C 209.171 151.429,208.469 152.325,207.841 153.746 C 206.853 155.981,206.982 155.894,202.173 157.553 C 199.865 158.349,199.451 158.367,193.773 157.930 C 184.645 157.228,184.230 157.246,182.992 158.402 C 180.833 160.420,180.771 160.804,181.209 169.589 C 181.788 181.202,180.610 186.661,177.142 188.430 C 176.116 188.953,175.311 189.796,174.705 190.981 C 174.207 191.955,173.173 193.172,172.407 193.687 C 171.556 194.258,170.778 195.250,170.407 196.236 C 168.865 200.335,163.582 204.582,161.168 203.664 C 159.039 202.855,159.130 204.354,159.153 170.432 C 159.176 136.834,159.125 137.727,161.097 136.828 C 162.481 136.198,162.661 136.257,164.509 137.942 C 165.439 138.790,166.740 139.736,167.400 140.044 C 168.190 140.413,169.010 141.386,169.800 142.893 C 170.460 144.151,171.630 145.772,172.400 146.495 C 173.170 147.218,174.378 148.527,175.085 149.405 L 176.369 151.000 177.181 150.000 C 177.941 149.064,177.976 148.639,177.740 143.388 C 177.334 134.387,175.616 135.000,201.239 135.000 C 214.162 135.000,217.608 135.109,218.118 135.532 M220.843 303.185 C 219.588 303.388,218.789 303.819,218.043 304.695 C 217.469 305.370,216.246 306.385,215.323 306.951 C 214.338 307.556,213.360 308.584,212.952 309.445 C 212.570 310.250,211.579 311.380,210.751 311.955 C 209.922 312.530,209.028 313.507,208.763 314.126 C 208.498 314.746,207.437 315.964,206.405 316.834 C 205.334 317.738,204.138 319.251,203.617 320.364 L 202.705 322.311 203.563 324.888 C 204.136 326.610,204.787 327.736,205.526 328.282 C 206.221 328.796,207.074 330.196,207.816 332.041 C 208.467 333.659,209.657 335.742,210.461 336.670 C 211.264 337.599,212.224 339.268,212.593 340.380 C 212.963 341.492,213.904 343.167,214.685 344.101 C 215.466 345.035,216.556 346.790,217.107 348.000 C 217.657 349.210,218.229 350.457,218.379 350.770 C 219.251 352.604,224.597 353.104,226.588 351.538 L 227.657 350.697 226.449 349.449 C 225.784 348.762,224.976 347.570,224.653 346.800 C 224.330 346.030,223.513 344.873,222.838 344.230 C 222.162 343.586,221.067 341.899,220.403 340.480 C 219.739 339.061,218.631 337.257,217.941 336.472 C 217.251 335.686,216.248 334.043,215.712 332.821 C 215.176 331.600,214.221 330.060,213.589 329.400 C 209.924 325.570,209.906 317.727,213.558 315.815 C 214.131 315.515,215.509 314.309,216.620 313.135 C 217.731 311.961,219.463 310.372,220.468 309.605 C 221.474 308.837,222.498 307.757,222.745 307.205 C 222.991 306.652,223.582 305.597,224.056 304.861 C 225.321 302.899,224.678 302.564,220.843 303.185 M60.125 304.104 C 60.925 304.744,61.315 305.488,61.475 306.679 C 61.943 310.169,61.985 310.181,75.418 310.336 L 87.172 310.472 88.162 309.403 L 89.153 308.334 88.262 305.867 C 87.548 303.887,87.217 303.420,86.586 303.502 C 82.737 304.004,67.910 304.161,66.000 303.720 C 64.790 303.441,62.720 303.211,61.400 303.208 L 59.000 303.204 60.125 304.104 M127.000 303.621 C 126.120 303.808,124.123 303.858,122.563 303.731 L 119.726 303.501 119.029 305.243 C 117.858 308.172,117.949 350.927,119.130 352.107 C 119.924 352.902,120.005 352.907,121.710 352.256 C 124.715 351.108,124.888 350.876,124.441 348.594 C 124.226 347.497,123.971 339.001,123.875 329.714 L 123.699 312.828 125.014 311.292 C 126.810 309.194,128.238 308.846,134.086 309.081 C 140.336 309.333,140.567 309.202,139.883 305.800 L 139.400 303.400 134.000 303.341 C 131.030 303.308,127.880 303.434,127.000 303.621 M261.800 304.218 C 260.480 304.795,258.663 305.505,257.762 305.796 C 255.246 306.607,251.816 308.127,251.662 308.497 C 251.251 309.484,249.305 311.334,247.950 312.026 C 247.097 312.460,246.400 313.007,246.400 313.241 C 246.400 314.189,243.843 319.473,242.895 320.486 C 240.511 323.030,240.691 335.328,243.137 337.041 C 243.592 337.360,244.369 338.729,244.862 340.083 C 245.872 342.852,249.829 347.235,252.223 348.235 C 252.953 348.540,254.073 349.349,254.711 350.033 C 258.055 353.610,274.980 353.576,277.494 349.987 C 277.802 349.548,278.725 348.847,279.546 348.428 C 281.817 347.269,285.725 343.182,286.882 340.755 C 287.447 339.570,288.360 338.213,288.912 337.740 C 290.310 336.541,290.976 332.361,290.687 326.600 C 290.432 321.515,290.224 320.839,288.025 317.943 C 287.130 316.764,286.109 315.049,285.756 314.131 C 285.316 312.986,284.751 312.311,283.956 311.982 C 282.978 311.577,281.814 310.444,280.038 308.173 C 279.854 307.937,278.286 307.251,276.552 306.648 C 274.818 306.044,272.438 305.089,271.263 304.526 C 268.065 302.993,264.841 302.889,261.800 304.218 M302.772 305.083 C 302.071 307.202,302.111 336.570,302.816 337.419 C 303.469 338.206,308.511 338.230,309.158 337.450 C 309.880 336.580,309.807 307.505,309.077 305.400 L 308.522 303.800 305.898 303.683 L 303.274 303.565 302.772 305.083 M164.400 304.363 C 163.410 304.493,161.790 305.054,160.800 305.610 C 159.810 306.165,158.477 306.885,157.838 307.210 C 157.095 307.587,156.486 308.349,156.152 309.317 C 155.865 310.152,155.248 311.370,154.782 312.026 C 153.587 313.703,152.349 317.427,152.594 318.607 C 152.707 319.153,152.886 320.020,152.991 320.534 C 153.096 321.047,153.748 322.172,154.439 323.034 C 155.131 323.895,156.018 325.341,156.411 326.247 C 156.935 327.454,157.431 327.969,158.263 328.171 C 158.888 328.323,160.120 328.776,161.000 329.179 C 166.570 331.729,167.366 331.978,171.306 332.403 C 181.065 333.456,183.101 334.429,184.006 338.470 C 184.972 342.787,183.166 345.791,178.165 348.187 C 175.482 349.473,174.947 350.127,175.533 351.412 C 176.042 352.530,179.972 352.865,181.726 351.939 C 183.272 351.124,188.400 345.712,188.400 344.896 C 188.400 344.465,188.854 343.442,189.410 342.624 C 190.687 340.742,190.448 338.012,188.740 334.968 C 188.113 333.850,187.600 332.666,187.600 332.337 C 187.600 331.590,186.092 330.180,184.907 329.821 C 184.416 329.672,183.303 328.867,182.434 328.033 C 180.578 326.249,178.751 325.802,171.600 325.378 C 162.409 324.835,157.807 321.090,159.465 315.505 C 160.517 311.963,161.694 310.961,165.645 310.246 C 168.142 309.794,168.676 308.812,167.850 306.191 C 167.470 304.986,166.943 304.028,166.680 304.063 C 166.416 304.097,165.390 304.232,164.400 304.363 M273.320 310.448 C 275.037 311.021,276.198 311.780,277.793 313.375 C 278.977 314.560,280.296 315.640,280.724 315.776 C 281.532 316.032,283.124 319.201,284.053 322.400 C 284.340 323.390,284.976 324.796,285.466 325.524 C 286.574 327.171,286.379 330.161,285.003 332.600 C 284.507 333.480,283.812 335.203,283.460 336.429 C 282.663 339.199,277.959 344.363,275.497 345.171 C 274.670 345.442,273.821 345.986,273.611 346.380 C 272.065 349.267,261.149 349.407,258.709 346.570 C 258.209 345.989,256.870 345.099,255.733 344.593 C 254.561 344.072,253.355 343.181,252.946 342.537 C 252.549 341.912,251.484 340.680,250.579 339.800 C 248.083 337.374,245.315 328.105,246.532 326.248 C 246.851 325.761,247.408 324.209,247.769 322.800 C 248.702 319.156,249.935 316.914,251.790 315.484 C 252.675 314.802,254.220 313.494,255.222 312.578 C 258.831 309.281,266.954 308.325,273.320 310.448 M100.780 314.259 C 100.125 316.244,100.090 343.276,100.740 344.900 C 101.133 345.882,101.396 346.006,103.190 346.060 C 104.296 346.093,105.412 346.138,105.671 346.160 C 106.651 346.243,106.855 343.397,106.857 329.600 C 106.860 312.512,106.959 313.039,103.710 312.882 L 101.274 312.764 100.780 314.259 M81.200 327.707 C 79.803 328.283,63.459 328.816,61.042 328.365 C 57.090 327.626,56.679 328.833,56.689 341.135 L 56.697 350.879 57.764 351.940 L 58.832 353.000 60.716 351.950 C 62.432 350.995,62.592 350.780,62.506 349.550 C 62.454 348.808,62.296 345.624,62.154 342.475 L 61.898 336.751 63.049 335.526 C 65.067 333.380,65.985 333.200,74.938 333.200 C 85.892 333.200,87.060 332.784,84.813 329.681 C 83.317 327.617,82.501 327.171,81.200 327.707 M306.812 348.696 C 302.252 348.883,300.890 350.017,302.926 351.930 C 303.839 352.789,304.033 352.800,317.656 352.800 L 331.461 352.800 332.420 351.778 C 333.320 350.821,333.342 350.689,332.775 349.678 L 332.170 348.600 321.185 348.578 C 315.143 348.566,308.675 348.619,306.812 348.696 " stroke="none" fill="#b822c4" fill-rule="evenodd"></path><path id="path1" d="M0.000 200.000 L 0.000 400.000 200.000 400.000 L 400.000 400.000 400.000 200.000 L 400.000 0.000 200.000 0.000 L 0.000 0.000 0.000 200.000 M221.600 52.202 C 225.010 52.541,229.240 53.159,231.000 53.575 C 232.760 53.992,237.350 54.709,241.200 55.169 C 251.654 56.419,255.971 57.199,258.289 58.259 C 259.438 58.784,262.587 59.580,265.289 60.028 C 273.348 61.366,276.792 63.236,277.811 66.829 C 278.058 67.701,278.124 85.375,277.992 115.400 L 277.784 162.600 276.894 165.757 C 276.404 167.493,275.844 169.113,275.649 169.357 C 275.241 169.866,274.219 174.241,273.368 179.118 C 272.797 182.392,272.070 184.352,270.949 185.634 C 270.644 185.983,269.854 188.381,269.193 190.964 C 267.940 195.856,267.281 197.503,266.226 198.378 C 265.882 198.664,265.600 199.047,265.600 199.228 C 265.600 200.539,262.874 206.744,261.795 207.887 C 261.090 208.635,260.287 210.002,260.012 210.924 C 259.259 213.442,258.100 215.516,257.065 216.194 C 256.557 216.527,255.637 217.891,255.021 219.224 C 254.406 220.558,253.366 222.043,252.710 222.524 C 252.055 223.006,251.104 224.210,250.597 225.200 C 250.089 226.190,249.103 227.540,248.405 228.200 C 247.707 228.860,246.233 230.615,245.130 232.100 C 244.027 233.585,242.989 234.800,242.825 234.800 C 242.660 234.800,241.552 235.735,240.362 236.878 C 235.463 241.586,231.609 244.782,229.610 245.795 C 228.444 246.386,227.062 247.378,226.539 248.000 C 226.015 248.622,224.398 249.687,222.944 250.368 C 221.490 251.048,219.696 252.135,218.958 252.783 C 218.204 253.446,216.431 254.320,214.908 254.781 C 213.419 255.231,211.480 256.046,210.600 256.592 C 207.833 258.307,206.310 258.878,202.400 259.665 C 200.310 260.086,197.769 260.700,196.754 261.029 C 193.441 262.104,182.300 259.435,178.837 256.736 C 178.307 256.323,176.867 255.696,175.637 255.342 C 172.890 254.551,169.756 253.008,169.322 252.233 C 169.145 251.916,167.802 251.119,166.339 250.462 C 164.875 249.806,162.986 248.652,162.139 247.897 C 161.293 247.143,159.499 245.945,158.153 245.236 C 156.791 244.517,155.461 243.484,155.153 242.905 C 154.849 242.334,153.658 241.262,152.506 240.525 C 151.354 239.787,150.135 238.649,149.798 237.995 C 149.460 237.342,148.467 236.442,147.592 235.996 C 146.716 235.549,145.571 234.505,145.048 233.676 C 144.525 232.847,143.425 231.657,142.606 231.031 C 141.786 230.406,140.865 229.297,140.560 228.566 C 140.255 227.836,139.370 226.735,138.594 226.119 C 137.817 225.504,136.483 223.830,135.629 222.400 C 134.775 220.970,133.615 219.369,133.051 218.842 C 132.487 218.316,131.551 216.643,130.971 215.124 C 130.337 213.465,129.538 212.116,128.969 211.743 C 127.948 211.074,126.347 208.006,125.641 205.364 C 125.400 204.463,124.819 203.383,124.350 202.964 C 123.237 201.968,122.197 199.514,121.174 195.467 C 120.720 193.670,119.920 191.570,119.396 190.800 C 118.026 188.785,117.653 187.612,116.542 181.834 C 115.996 178.992,115.186 175.957,114.744 175.089 C 112.256 170.212,111.969 163.790,112.019 114.125 C 112.072 62.061,111.606 66.312,117.475 64.389 C 118.974 63.898,120.470 63.272,120.800 62.997 C 122.168 61.856,124.089 61.222,129.061 60.271 C 131.949 59.719,135.286 58.804,136.487 58.236 C 139.059 57.019,140.190 56.788,150.200 55.427 C 154.380 54.858,159.240 54.040,161.000 53.609 C 170.496 51.280,204.398 50.493,221.600 52.202 M164.600 104.530 L 163.000 105.446 163.101 108.223 C 163.157 109.750,163.005 111.963,162.765 113.140 C 162.036 116.700,165.417 119.570,169.458 118.823 C 172.205 118.315,219.974 118.271,227.800 118.768 L 233.000 119.099 234.222 118.030 C 234.894 117.443,235.974 116.742,236.622 116.474 C 237.370 116.164,238.166 115.295,238.800 114.095 C 239.350 113.056,240.375 111.844,241.077 111.403 C 241.780 110.961,242.570 110.098,242.833 109.484 C 243.095 108.870,244.005 107.773,244.855 107.046 C 246.302 105.807,246.355 105.685,245.700 105.113 C 243.957 103.593,244.147 103.600,204.726 103.607 L 166.200 103.613 164.600 104.530 M211.800 138.033 C 210.700 138.212,204.040 138.337,197.000 138.310 C 179.336 138.244,180.041 137.836,180.669 147.755 L 181.000 152.992 182.200 153.583 C 183.076 154.014,185.719 154.254,192.000 154.470 C 202.550 154.833,204.348 154.484,205.671 151.816 C 206.111 150.927,207.221 149.466,208.136 148.569 C 209.051 147.672,210.430 145.985,211.200 144.821 C 211.970 143.656,213.090 142.164,213.688 141.505 C 215.283 139.748,215.510 137.343,214.051 137.653 C 213.913 137.683,212.900 137.854,211.800 138.033 M162.218 142.716 C 161.809 143.124,161.999 144.838,162.576 145.954 C 163.502 147.745,163.546 191.572,162.624 193.721 C 161.800 195.642,162.130 198.322,163.092 197.524 C 163.421 197.250,164.525 196.931,165.545 196.813 C 167.333 196.608,167.437 196.522,168.436 194.426 C 169.006 193.230,170.008 191.790,170.663 191.226 C 171.318 190.662,172.248 189.547,172.730 188.749 C 173.211 187.951,174.217 186.775,174.964 186.137 C 178.082 183.473,178.067 183.555,178.110 169.108 L 178.149 156.204 176.709 155.202 C 174.629 153.754,168.850 147.287,167.891 145.333 C 167.111 143.743,163.059 141.874,162.218 142.716 M88.482 300.816 C 92.960 302.060,93.491 308.880,89.414 312.800 L 87.958 314.200 78.079 314.401 L 68.200 314.602 64.512 313.049 C 57.097 309.927,52.948 303.207,57.000 300.883 C 58.049 300.282,86.340 300.221,88.482 300.816 M140.981 300.966 C 142.788 301.721,143.174 302.580,143.297 306.123 C 143.472 311.179,141.842 312.186,134.167 311.759 C 126.807 311.350,127.552 308.996,127.623 332.432 C 127.687 353.705,127.670 353.876,125.356 355.392 C 119.921 358.953,113.001 354.389,114.752 348.398 C 115.758 344.958,115.711 313.578,114.695 310.381 C 113.300 305.988,114.907 301.863,118.400 300.870 C 120.722 300.210,139.361 300.289,140.981 300.966 M169.080 301.423 C 171.815 303.192,171.260 311.296,168.314 312.619 C 158.232 317.145,160.676 320.783,175.157 322.801 C 180.977 323.612,183.677 324.501,184.962 326.028 C 185.505 326.673,186.078 327.200,186.236 327.200 C 186.920 327.200,189.255 329.348,189.845 330.521 C 190.200 331.224,190.999 332.340,191.622 333.000 C 194.244 335.777,194.151 343.886,191.466 346.570 C 190.985 347.051,189.815 348.420,188.865 349.613 C 186.778 352.235,184.539 353.790,181.600 354.660 C 180.390 355.019,178.779 355.582,178.020 355.913 C 174.715 357.352,171.623 352.392,173.309 348.357 C 173.924 346.885,177.363 344.211,180.127 343.056 C 182.850 341.919,182.721 340.153,179.741 337.765 C 177.358 335.855,176.921 335.727,171.862 335.451 C 165.743 335.117,161.921 334.251,160.270 332.826 C 159.571 332.224,158.080 331.236,156.955 330.632 C 155.543 329.873,154.620 329.016,153.976 327.866 C 153.462 326.950,152.624 325.869,152.113 325.465 C 148.950 322.961,148.986 312.216,152.165 309.693 C 152.645 309.312,153.479 308.202,154.019 307.228 C 154.692 306.011,155.538 305.186,156.714 304.596 C 157.657 304.124,158.701 303.348,159.035 302.872 C 160.584 300.660,166.566 299.798,169.080 301.423 M228.375 301.775 C 229.861 303.200,229.886 303.574,228.595 304.968 C 228.042 305.565,227.233 306.752,226.797 307.606 C 226.361 308.460,225.525 309.483,224.939 309.880 C 222.169 311.752,213.767 320.061,213.361 321.329 C 212.998 322.464,213.502 323.860,214.815 325.356 C 215.476 326.109,216.647 328.088,217.416 329.753 C 218.186 331.418,219.143 332.955,219.544 333.170 C 219.944 333.384,220.943 334.954,221.764 336.659 C 222.584 338.363,223.809 340.388,224.485 341.158 C 225.162 341.929,226.072 343.379,226.508 344.380 C 226.943 345.381,228.204 347.045,229.309 348.079 L 231.318 349.958 231.058 352.449 C 230.644 356.413,229.579 357.203,225.200 356.795 C 220.276 356.337,217.131 354.577,215.652 351.453 C 215.014 350.104,214.092 348.640,213.603 348.200 C 212.600 347.296,211.605 345.475,210.437 342.402 C 209.999 341.248,209.255 340.034,208.785 339.705 C 208.315 339.375,207.160 337.462,206.219 335.453 C 205.277 333.444,203.948 331.276,203.264 330.635 C 202.572 329.987,201.727 328.569,201.356 327.435 C 200.990 326.316,200.358 324.738,199.952 323.930 L 199.214 322.460 200.806 319.235 C 202.041 316.736,202.758 315.784,203.996 315.002 C 204.875 314.448,206.024 313.313,206.549 312.481 C 207.074 311.649,208.157 310.470,208.956 309.861 C 209.754 309.252,210.775 308.032,211.225 307.151 C 211.675 306.269,212.627 305.203,213.340 304.782 C 214.053 304.362,215.051 303.457,215.556 302.773 C 217.610 299.995,225.849 299.353,228.375 301.775 M273.733 301.517 C 274.796 301.994,276.199 302.833,276.851 303.381 C 277.503 303.930,278.772 304.599,279.671 304.868 C 280.570 305.138,281.777 305.876,282.353 306.510 C 284.247 308.592,285.089 309.390,286.193 310.150 C 286.792 310.562,287.543 311.523,287.861 312.285 C 288.180 313.048,289.137 314.354,289.989 315.189 C 294.229 319.346,294.270 337.239,290.049 341.800 C 289.438 342.460,288.343 343.953,287.616 345.117 C 286.890 346.281,285.553 347.751,284.647 348.382 C 283.741 349.014,282.333 350.169,281.517 350.949 C 279.656 352.728,277.653 353.757,274.425 354.594 C 273.035 354.954,271.437 355.550,270.873 355.920 C 269.457 356.847,262.599 356.879,261.176 355.964 C 260.639 355.620,258.609 354.846,256.665 354.245 C 254.079 353.446,252.684 352.752,251.465 351.662 C 250.549 350.842,248.775 349.414,247.521 348.489 C 245.835 347.243,244.857 346.104,243.759 344.103 C 242.943 342.616,241.863 340.950,241.359 340.400 C 237.405 336.086,237.558 319.806,241.588 316.048 C 242.206 315.472,243.185 314.056,243.762 312.901 C 244.451 311.524,245.350 310.463,246.375 309.816 C 247.234 309.273,248.266 308.270,248.669 307.587 C 249.156 306.759,250.335 305.881,252.200 304.956 C 253.740 304.192,255.818 303.031,256.818 302.376 C 260.166 300.184,269.684 299.701,273.733 301.517 M309.827 300.986 C 312.405 302.062,312.439 302.344,312.313 321.210 L 312.200 337.985 310.906 339.279 C 308.748 341.437,301.911 341.456,300.504 339.309 C 299.441 337.687,298.963 304.738,299.975 302.847 C 301.204 300.550,306.423 299.563,309.827 300.986 M106.813 310.207 C 109.275 311.480,109.304 311.707,109.284 329.435 C 109.268 343.361,109.180 345.679,108.626 346.750 C 106.741 350.394,99.121 349.930,97.989 346.102 C 97.319 343.833,97.620 313.315,98.326 312.079 C 99.627 309.797,104.109 308.808,106.813 310.207 M261.489 312.381 C 260.878 312.577,259.746 313.291,258.975 313.968 C 258.203 314.646,257.325 315.200,257.023 315.200 C 256.328 315.200,251.706 319.838,250.955 321.288 C 248.903 325.252,249.899 336.507,252.417 337.809 C 253.070 338.146,254.029 339.095,254.548 339.917 C 255.766 341.847,256.107 342.090,259.104 343.155 C 265.860 345.558,266.584 345.520,275.302 342.307 C 275.908 342.084,276.780 341.232,277.240 340.415 C 277.699 339.597,278.597 338.620,279.235 338.243 C 281.346 336.996,282.246 333.022,281.881 326.565 C 281.568 321.042,279.251 317.385,274.401 314.756 C 273.630 314.338,272.498 313.597,271.883 313.108 C 270.651 312.127,263.785 311.647,261.489 312.381 M87.079 324.832 C 88.517 325.376,89.294 327.017,89.504 329.951 C 89.887 335.307,87.725 336.164,74.950 335.726 L 67.699 335.477 66.950 336.621 C 66.287 337.632,66.200 338.605,66.197 344.983 C 66.192 354.256,65.684 355.348,60.858 356.462 C 58.421 357.025,57.203 356.729,55.387 355.135 C 52.769 352.837,52.723 352.602,52.636 341.038 C 52.539 328.249,52.918 326.450,56.000 325.056 C 57.950 324.174,84.829 323.980,87.079 324.832 M333.583 345.384 C 336.573 348.248,336.365 353.346,333.165 355.625 C 331.266 356.977,303.919 357.092,302.126 355.756 C 298.768 353.253,298.697 347.524,302.009 346.274 C 302.635 346.038,303.230 345.530,303.330 345.146 C 303.566 344.243,304.324 344.200,319.874 344.200 L 332.347 344.200 333.583 345.384 " stroke="none" fill="#fcdd0a" fill-rule="evenodd"></path><path id="path2" d="M178.115 51.599 C 170.040 52.020,165.123 52.598,161.000 53.609 C 159.240 54.040,154.380 54.858,150.200 55.427 C 140.190 56.788,139.059 57.019,136.487 58.236 C 135.286 58.804,131.949 59.719,129.061 60.271 C 124.089 61.222,122.168 61.856,120.800 62.997 C 120.470 63.272,118.974 63.898,117.475 64.389 C 111.606 66.312,112.072 62.061,112.019 114.125 C 111.969 163.790,112.256 170.212,114.744 175.089 C 115.186 175.957,115.996 178.992,116.542 181.834 C 117.653 187.612,118.026 188.785,119.396 190.800 C 119.920 191.570,120.720 193.670,121.174 195.467 C 122.197 199.514,123.237 201.968,124.350 202.964 C 124.819 203.383,125.400 204.463,125.641 205.364 C 126.347 208.006,127.948 211.074,128.969 211.743 C 129.538 212.116,130.337 213.465,130.971 215.124 C 131.551 216.643,132.487 218.316,133.051 218.842 C 133.615 219.369,134.775 220.970,135.629 222.400 C 136.483 223.830,137.817 225.504,138.594 226.119 C 139.370 226.735,140.255 227.836,140.560 228.566 C 140.865 229.297,141.786 230.406,142.606 231.031 C 143.425 231.657,144.525 232.847,145.048 233.676 C 145.571 234.505,146.716 235.549,147.592 235.996 C 148.467 236.442,149.460 237.342,149.798 237.995 C 150.135 238.649,151.354 239.787,152.506 240.525 C 153.658 241.262,154.849 242.334,155.153 242.905 C 155.461 243.484,156.791 244.517,158.153 245.236 C 159.499 245.945,161.293 247.143,162.139 247.897 C 162.986 248.652,164.875 249.806,166.339 250.462 C 167.802 251.119,169.145 251.916,169.322 252.233 C 169.756 253.008,172.890 254.551,175.637 255.342 C 176.867 255.696,178.307 256.323,178.837 256.736 C 180.526 258.053,182.105 258.694,186.404 259.810 C 193.048 261.534,194.627 261.720,196.754 261.029 C 197.769 260.700,200.310 260.086,202.400 259.665 C 206.310 258.878,207.833 258.307,210.600 256.592 C 211.480 256.046,213.419 255.231,214.908 254.781 C 216.431 254.320,218.204 253.446,218.958 252.783 C 219.696 252.135,221.490 251.048,222.944 250.368 C 224.398 249.687,226.015 248.622,226.539 248.000 C 227.062 247.378,228.444 246.386,229.610 245.795 C 231.609 244.782,235.463 241.586,240.362 236.878 C 241.552 235.735,242.660 234.800,242.825 234.800 C 242.989 234.800,244.027 233.585,245.130 232.100 C 246.233 230.615,247.707 228.860,248.405 228.200 C 249.103 227.540,250.089 226.190,250.597 225.200 C 251.104 224.210,252.055 223.006,252.710 222.524 C 253.366 222.043,254.406 220.558,255.021 219.224 C 255.637 217.891,256.557 216.527,257.065 216.194 C 258.100 215.516,259.259 213.442,260.012 210.924 C 260.287 210.002,261.090 208.635,261.795 207.887 C 262.874 206.744,265.600 200.539,265.600 199.228 C 265.600 199.047,265.882 198.664,266.226 198.378 C 267.281 197.503,267.940 195.856,269.193 190.964 C 269.854 188.381,270.644 185.983,270.949 185.634 C 272.070 184.352,272.797 182.392,273.368 179.118 C 274.219 174.241,275.241 169.866,275.649 169.357 C 275.844 169.113,276.404 167.493,276.894 165.757 L 277.784 162.600 277.992 115.400 C 278.124 85.375,278.058 67.701,277.811 66.829 C 276.792 63.236,273.348 61.366,265.289 60.028 C 262.587 59.580,259.438 58.784,258.289 58.259 C 255.971 57.199,251.654 56.419,241.200 55.169 C 237.350 54.709,232.760 53.992,231.000 53.575 C 223.357 51.767,195.118 50.711,178.115 51.599 M206.053 53.194 C 214.362 53.635,237.700 56.166,247.000 57.633 C 248.540 57.876,251.793 58.600,254.229 59.241 C 256.665 59.882,261.221 60.856,264.353 61.406 C 270.911 62.556,271.477 62.796,274.599 65.748 C 276.465 67.513,276.842 68.076,276.556 68.667 C 276.357 69.078,276.167 89.209,276.124 114.466 L 276.047 159.532 274.651 165.466 C 273.883 168.730,272.869 173.380,272.397 175.800 C 271.926 178.220,271.104 181.051,270.571 182.092 C 270.037 183.132,269.050 186.012,268.376 188.492 C 267.702 190.971,266.525 194.229,265.760 195.731 C 264.995 197.233,263.837 199.920,263.186 201.703 C 262.535 203.487,261.656 205.318,261.232 205.773 C 260.809 206.228,259.812 208.032,259.016 209.782 C 258.221 211.532,256.863 213.881,255.998 215.002 C 255.133 216.123,254.166 217.661,253.848 218.420 C 253.530 219.179,252.783 220.250,252.188 220.800 C 251.593 221.350,250.391 222.925,249.517 224.300 C 248.643 225.675,247.770 226.800,247.577 226.800 C 247.383 226.800,246.485 227.802,245.580 229.027 C 242.363 233.381,231.550 243.324,228.348 244.871 C 227.475 245.293,226.094 246.236,225.280 246.968 C 224.466 247.700,222.451 248.976,220.802 249.804 C 219.153 250.631,217.263 251.705,216.602 252.190 C 215.941 252.675,213.960 253.575,212.200 254.190 C 210.440 254.805,208.060 255.835,206.911 256.477 C 200.108 260.283,189.796 260.325,182.351 256.576 C 180.845 255.817,178.147 254.661,176.357 254.008 C 174.567 253.355,172.499 252.360,171.762 251.798 C 171.026 251.237,169.293 250.268,167.912 249.646 C 166.530 249.024,164.623 247.863,163.673 247.067 C 162.723 246.270,160.859 245.039,159.531 244.331 C 158.203 243.623,156.838 242.619,156.497 242.099 C 156.157 241.580,155.051 240.590,154.039 239.900 C 153.028 239.210,151.355 237.826,150.323 236.823 C 149.291 235.820,147.941 234.513,147.323 233.917 C 144.395 231.093,141.600 228.027,141.600 227.639 C 141.600 227.402,140.745 226.262,139.700 225.104 C 138.655 223.947,137.179 222.010,136.421 220.800 C 135.662 219.590,134.527 217.997,133.898 217.260 C 133.269 216.524,132.317 214.930,131.781 213.719 C 131.246 212.508,130.200 210.681,129.458 209.659 C 128.717 208.636,127.723 206.753,127.250 205.473 C 126.778 204.193,125.686 201.853,124.824 200.273 C 123.962 198.693,122.769 195.690,122.173 193.600 C 121.577 191.510,120.585 188.900,119.968 187.800 C 119.202 186.433,118.511 184.091,117.786 180.400 C 117.202 177.430,116.161 172.930,115.473 170.400 L 114.220 165.800 114.010 118.600 C 113.758 61.923,113.274 67.608,118.515 65.643 C 119.882 65.130,122.212 64.178,123.693 63.527 C 125.174 62.876,128.594 61.904,131.293 61.366 C 133.992 60.828,137.640 59.950,139.400 59.415 C 152.907 55.309,186.629 52.162,206.053 53.194 M244.600 101.200 C 243.940 101.368,226.017 101.527,204.771 101.553 C 156.592 101.612,160.881 100.714,160.865 110.745 C 160.846 122.050,157.416 121.123,199.469 121.183 L 233.137 121.231 234.469 120.090 C 235.201 119.462,236.385 118.544,237.099 118.048 C 237.814 117.552,238.968 116.304,239.665 115.273 C 240.363 114.243,241.520 112.903,242.237 112.295 C 242.954 111.688,243.913 110.588,244.368 109.851 C 244.824 109.114,245.917 108.012,246.798 107.401 C 248.557 106.183,248.784 105.200,247.979 102.300 C 247.534 100.696,247.115 100.560,244.600 101.200 M244.126 104.051 C 246.438 105.246,246.528 105.614,244.855 107.046 C 244.005 107.773,243.095 108.870,242.833 109.484 C 242.570 110.098,241.780 110.961,241.077 111.403 C 240.375 111.844,239.350 113.056,238.800 114.095 C 238.166 115.295,237.370 116.164,236.622 116.474 C 235.974 116.742,234.894 117.443,234.222 118.030 L 233.000 119.099 227.800 118.768 C 219.974 118.271,172.205 118.315,169.458 118.823 C 165.417 119.570,162.036 116.700,162.765 113.140 C 163.005 111.963,163.157 109.750,163.101 108.223 L 163.000 105.446 164.600 104.530 L 166.200 103.613 204.726 103.607 C 232.564 103.602,243.495 103.725,244.126 104.051 M183.092 136.819 C 179.656 137.214,178.626 139.601,179.197 145.844 C 179.477 148.902,178.987 150.871,177.620 152.181 L 176.519 153.236 173.305 149.715 C 171.537 147.779,169.565 145.296,168.922 144.197 C 167.722 142.146,163.340 139.326,162.082 139.795 C 160.795 140.276,160.279 142.839,160.793 146.200 C 161.307 149.562,161.129 194.841,160.589 198.236 C 160.368 199.621,160.481 200.050,161.328 201.035 L 162.329 202.198 163.864 200.884 C 164.709 200.161,165.994 199.194,166.719 198.734 C 167.462 198.263,168.480 197.026,169.051 195.900 C 169.608 194.800,170.770 193.158,171.633 192.250 C 179.948 183.507,179.355 185.130,179.618 170.400 C 179.786 160.986,179.966 157.936,180.407 157.046 L 180.978 155.891 190.589 156.113 C 202.006 156.376,204.025 156.053,205.996 153.645 C 208.916 150.080,211.542 146.969,213.241 145.064 C 217.043 140.801,217.899 138.220,215.873 137.129 C 214.960 136.637,186.976 136.373,183.092 136.819 M214.784 138.181 C 215.405 138.929,215.050 140.004,213.688 141.505 C 213.090 142.164,211.970 143.656,211.200 144.821 C 210.430 145.985,209.051 147.672,208.136 148.569 C 207.221 149.466,206.111 150.927,205.671 151.816 C 204.348 154.484,202.550 154.833,192.000 154.470 C 185.719 154.254,183.076 154.014,182.200 153.583 L 181.000 152.992 180.669 147.755 C 180.041 137.836,179.336 138.244,197.000 138.310 C 207.657 138.351,211.465 138.204,214.051 137.653 C 214.189 137.624,214.519 137.861,214.784 138.181 M167.891 145.333 C 168.850 147.287,174.629 153.754,176.709 155.202 L 178.149 156.204 178.110 169.108 C 178.067 183.555,178.082 183.473,174.964 186.137 C 174.217 186.775,173.211 187.951,172.730 188.749 C 172.248 189.547,171.318 190.662,170.663 191.226 C 170.008 191.790,169.006 193.230,168.436 194.426 C 167.437 196.522,167.333 196.608,165.545 196.813 C 164.525 196.931,163.421 197.250,163.092 197.524 C 162.130 198.322,161.800 195.642,162.624 193.721 C 163.546 191.572,163.502 147.745,162.576 145.954 C 161.999 144.838,161.809 143.124,162.218 142.716 C 163.059 141.874,167.111 143.743,167.891 145.333 M57.000 300.883 C 52.948 303.207,57.097 309.927,64.512 313.049 L 68.200 314.602 78.079 314.401 L 87.958 314.200 89.414 312.800 C 93.491 308.880,92.960 302.060,88.482 300.816 C 86.340 300.221,58.049 300.282,57.000 300.883 M118.400 300.870 C 114.907 301.863,113.300 305.988,114.695 310.381 C 115.711 313.578,115.758 344.958,114.752 348.398 C 113.001 354.389,119.921 358.953,125.356 355.392 C 127.670 353.876,127.687 353.705,127.623 332.432 C 127.552 308.996,126.807 311.350,134.167 311.759 C 141.842 312.186,143.472 311.179,143.297 306.123 C 143.101 300.483,142.874 300.388,129.713 300.436 C 124.261 300.456,119.170 300.651,118.400 300.870 M163.800 300.779 C 161.091 301.099,159.915 301.615,159.035 302.872 C 158.701 303.348,157.657 304.124,156.714 304.596 C 155.538 305.186,154.692 306.011,154.019 307.228 C 153.479 308.202,152.645 309.312,152.165 309.693 C 148.986 312.216,148.950 322.961,152.113 325.465 C 152.624 325.869,153.462 326.950,153.976 327.866 C 154.620 329.016,155.543 329.873,156.955 330.632 C 158.080 331.236,159.571 332.224,160.270 332.826 C 161.921 334.251,165.743 335.117,171.862 335.451 C 176.921 335.727,177.358 335.855,179.741 337.765 C 182.721 340.153,182.850 341.919,180.127 343.056 C 177.363 344.211,173.924 346.885,173.309 348.357 C 171.623 352.392,174.715 357.352,178.020 355.913 C 178.779 355.582,180.390 355.019,181.600 354.660 C 184.539 353.790,186.778 352.235,188.865 349.613 C 189.815 348.420,190.985 347.051,191.466 346.570 C 194.151 343.886,194.244 335.777,191.622 333.000 C 190.999 332.340,190.200 331.224,189.845 330.521 C 189.255 329.348,186.920 327.200,186.236 327.200 C 186.078 327.200,185.505 326.673,184.962 326.028 C 183.677 324.501,180.977 323.612,175.157 322.801 C 160.676 320.783,158.232 317.145,168.314 312.619 C 169.946 311.887,170.801 309.991,170.798 307.113 C 170.792 301.617,169.165 300.145,163.800 300.779 M217.738 300.962 C 217.044 301.274,216.062 302.089,215.556 302.773 C 215.051 303.457,214.053 304.362,213.340 304.782 C 212.627 305.203,211.675 306.269,211.225 307.151 C 210.775 308.032,209.754 309.252,208.956 309.861 C 208.157 310.470,207.074 311.649,206.549 312.481 C 206.024 313.313,204.875 314.448,203.996 315.002 C 202.758 315.784,202.041 316.736,200.806 319.235 L 199.214 322.460 199.952 323.930 C 200.358 324.738,200.990 326.316,201.356 327.435 C 201.727 328.569,202.572 329.987,203.264 330.635 C 203.948 331.276,205.277 333.444,206.219 335.453 C 207.160 337.462,208.315 339.375,208.785 339.705 C 209.255 340.034,209.999 341.248,210.437 342.402 C 211.605 345.475,212.600 347.296,213.603 348.200 C 214.092 348.640,215.014 350.104,215.652 351.453 C 217.131 354.577,220.276 356.337,225.200 356.795 C 229.579 357.203,230.644 356.413,231.058 352.449 L 231.318 349.958 229.309 348.079 C 228.204 347.045,226.943 345.381,226.508 344.380 C 226.072 343.379,225.162 341.929,224.485 341.158 C 223.809 340.388,222.584 338.363,221.764 336.659 C 220.943 334.954,219.944 333.384,219.544 333.170 C 219.143 332.955,218.186 331.418,217.416 329.753 C 216.647 328.088,215.476 326.109,214.815 325.356 C 213.502 323.860,212.998 322.464,213.361 321.329 C 213.767 320.061,222.169 311.752,224.939 309.880 C 225.525 309.483,226.361 308.460,226.797 307.606 C 227.233 306.752,228.042 305.565,228.595 304.968 C 231.558 301.770,222.982 298.606,217.738 300.962 M260.418 300.814 C 259.438 301.019,257.818 301.722,256.818 302.376 C 255.818 303.031,253.740 304.192,252.200 304.956 C 250.335 305.881,249.156 306.759,248.669 307.587 C 248.266 308.270,247.234 309.273,246.375 309.816 C 245.350 310.463,244.451 311.524,243.762 312.901 C 243.185 314.056,242.206 315.472,241.588 316.048 C 237.558 319.806,237.405 336.086,241.359 340.400 C 241.863 340.950,242.943 342.616,243.759 344.103 C 244.857 346.104,245.835 347.243,247.521 348.489 C 248.775 349.414,250.549 350.842,251.465 351.662 C 252.684 352.752,254.079 353.446,256.665 354.245 C 258.609 354.846,260.639 355.620,261.176 355.964 C 262.599 356.879,269.457 356.847,270.873 355.920 C 271.437 355.550,273.035 354.954,274.425 354.594 C 277.653 353.757,279.656 352.728,281.517 350.949 C 282.333 350.169,283.741 349.014,284.647 348.382 C 285.553 347.751,286.890 346.281,287.616 345.117 C 288.343 343.953,289.438 342.460,290.049 341.800 C 294.270 337.239,294.229 319.346,289.989 315.189 C 289.137 314.354,288.180 313.048,287.861 312.285 C 287.543 311.523,286.792 310.562,286.193 310.150 C 285.089 309.390,284.247 308.592,282.353 306.510 C 281.777 305.876,280.570 305.138,279.671 304.868 C 278.772 304.599,277.503 303.930,276.851 303.381 C 273.817 300.829,266.113 299.625,260.418 300.814 M301.726 301.180 C 299.260 302.683,299.226 303.097,299.619 326.628 C 299.865 341.382,299.738 341.131,306.808 340.732 C 309.334 340.589,309.740 340.445,310.906 339.279 L 312.200 337.985 312.313 321.210 C 312.439 302.344,312.405 302.062,309.827 300.986 C 307.742 300.114,303.299 300.221,301.726 301.180 M140.361 302.700 C 141.955 304.193,142.346 307.950,141.032 309.144 C 139.563 310.478,138.688 310.635,134.000 310.400 C 129.251 310.162,128.443 310.314,126.881 311.738 L 125.961 312.576 126.023 331.835 C 126.089 352.468,126.104 352.312,124.030 353.384 C 121.147 354.875,118.288 354.432,117.157 352.320 C 116.540 351.167,116.573 306.501,117.192 304.626 C 118.015 302.130,117.467 302.214,136.294 301.682 C 138.955 301.607,139.282 301.688,140.361 302.700 M225.626 302.463 L 227.162 303.326 225.881 305.682 C 225.113 307.095,223.719 308.783,222.400 309.900 C 211.024 319.528,210.230 321.444,214.794 328.267 C 215.897 329.917,216.800 331.506,216.800 331.798 C 216.800 332.089,217.505 333.221,218.368 334.311 C 219.230 335.402,220.513 337.443,221.220 338.847 C 221.926 340.251,223.020 341.990,223.650 342.711 C 224.280 343.432,225.175 344.782,225.639 345.711 C 226.104 346.640,227.195 348.137,228.064 349.037 L 229.644 350.675 228.988 352.313 C 227.531 355.955,216.939 354.425,216.814 350.555 C 216.806 350.310,215.750 348.510,214.467 346.555 C 213.184 344.600,211.897 342.370,211.609 341.600 C 211.320 340.830,210.549 339.509,209.894 338.665 C 209.240 337.820,207.994 335.674,207.126 333.897 C 206.257 332.119,204.965 329.986,204.256 329.157 C 203.546 328.327,202.547 326.465,202.036 325.018 L 201.107 322.386 201.987 320.293 C 202.517 319.031,203.767 317.296,205.133 315.924 C 210.056 310.981,211.297 309.604,212.417 307.837 C 213.058 306.827,213.747 306.000,213.948 306.000 C 214.149 306.000,215.249 305.159,216.392 304.131 C 219.282 301.533,222.831 300.892,225.626 302.463 M274.903 304.239 C 277.490 305.427,279.771 306.400,279.972 306.400 C 280.173 306.400,280.973 307.143,281.751 308.051 C 282.528 308.959,283.800 310.134,284.577 310.662 C 285.355 311.191,286.284 312.203,286.643 312.911 C 287.001 313.620,287.975 315.100,288.806 316.200 C 292.184 320.669,293.198 333.781,290.494 338.040 C 285.776 345.470,283.377 348.038,277.600 351.841 C 274.118 354.133,265.456 354.983,259.685 353.600 C 253.392 352.091,246.791 347.116,244.143 341.885 C 243.562 340.738,242.655 339.233,242.127 338.541 C 238.643 333.969,239.127 322.206,243.015 317.000 C 243.507 316.340,244.383 314.856,244.961 313.702 C 245.617 312.391,246.583 311.225,247.535 310.595 C 248.374 310.041,249.458 309.048,249.945 308.388 C 251.225 306.658,260.195 302.439,263.400 302.061 C 267.859 301.534,269.830 301.907,274.903 304.239 M88.531 302.817 C 90.040 304.004,90.767 307.542,89.883 309.395 C 88.696 311.884,88.464 311.932,77.200 312.028 C 64.049 312.140,62.146 311.706,59.949 308.093 C 59.450 307.272,58.493 305.908,57.823 305.062 L 56.606 303.525 57.487 302.811 C 58.930 301.643,87.046 301.649,88.531 302.817 M167.937 302.933 C 170.905 306.092,169.773 310.422,165.588 311.920 C 155.725 315.452,159.908 322.851,172.401 323.972 C 178.150 324.487,181.342 325.228,182.787 326.383 C 183.344 326.828,184.708 327.817,185.817 328.580 C 186.995 329.390,188.226 330.682,188.775 331.684 C 189.292 332.628,190.150 333.987,190.681 334.704 C 194.988 340.519,187.575 352.580,178.886 353.895 L 176.373 354.275 175.187 352.924 C 173.495 350.997,174.073 348.424,176.479 347.171 C 182.798 343.880,184.141 341.797,182.340 338.077 C 181.080 335.473,178.845 334.564,172.330 334.008 C 166.842 333.539,163.787 332.813,161.614 331.462 C 160.852 330.988,159.322 330.150,158.214 329.600 C 157.004 328.999,155.880 328.070,155.400 327.274 C 154.960 326.545,153.940 325.156,153.133 324.188 C 150.514 321.045,150.584 314.740,153.281 311.054 C 154.006 310.062,154.960 308.661,155.400 307.940 C 155.840 307.220,156.830 306.228,157.600 305.736 C 158.370 305.245,159.720 304.338,160.600 303.721 C 161.683 302.962,162.910 302.525,164.400 302.367 C 165.610 302.239,166.704 302.104,166.830 302.067 C 166.957 302.030,167.455 302.420,167.937 302.933 M309.484 302.900 C 310.841 304.382,310.899 305.128,310.921 321.373 L 310.943 337.000 309.660 338.300 C 307.482 340.507,301.275 339.788,301.189 337.319 C 300.976 331.196,300.875 306.892,301.058 305.625 C 301.565 302.106,307.115 300.311,309.484 302.900 M100.126 310.380 C 97.786 311.807,97.811 311.615,97.673 328.800 C 97.512 348.779,97.454 348.555,102.867 349.060 C 105.932 349.347,107.637 348.663,108.626 346.750 C 109.605 344.857,109.621 313.975,108.644 312.086 C 107.369 309.620,102.855 308.716,100.126 310.380 M262.701 310.834 C 259.660 311.280,257.010 312.844,252.699 316.739 C 245.123 323.584,247.742 339.367,257.200 343.860 C 258.410 344.434,259.850 345.218,260.400 345.602 C 262.918 347.358,269.009 347.385,271.584 345.650 C 272.143 345.274,273.522 344.549,274.649 344.039 C 282.968 340.272,286.303 328.093,281.410 319.343 C 278.659 314.423,270.656 309.983,265.400 310.461 C 265.180 310.481,263.965 310.649,262.701 310.834 M106.605 311.862 C 107.954 313.211,108.072 314.576,108.085 329.019 C 108.103 347.767,108.142 347.600,103.782 347.600 C 98.909 347.600,98.928 347.673,99.020 329.000 C 99.093 314.222,99.145 313.638,100.529 312.100 C 101.566 310.948,105.536 310.793,106.605 311.862 M271.883 313.108 C 272.498 313.597,273.630 314.338,274.401 314.756 C 279.251 317.385,281.568 321.042,281.881 326.565 C 282.246 333.022,281.346 336.996,279.235 338.243 C 278.597 338.620,277.699 339.597,277.240 340.415 C 276.780 341.232,275.908 342.084,275.302 342.307 C 266.584 345.520,265.860 345.558,259.104 343.155 C 256.107 342.090,255.766 341.847,254.548 339.917 C 254.029 339.095,253.070 338.146,252.417 337.809 C 249.899 336.507,248.903 325.252,250.955 321.288 C 251.706 319.838,256.328 315.200,257.023 315.200 C 257.325 315.200,258.203 314.646,258.975 313.968 C 261.531 311.724,269.479 311.194,271.883 313.108 M68.800 324.373 C 54.713 324.648,54.207 324.793,53.051 328.862 C 52.276 331.588,52.510 351.079,53.337 352.678 C 54.930 355.759,57.753 357.179,60.858 356.462 C 65.684 355.348,66.192 354.256,66.197 344.983 C 66.200 338.605,66.287 337.632,66.950 336.621 L 67.699 335.477 74.950 335.726 C 87.725 336.164,89.887 335.307,89.504 329.951 C 89.082 324.061,88.788 323.982,68.800 324.373 M84.994 326.341 C 86.752 326.965,87.044 327.235,87.463 328.624 C 89.007 333.742,87.420 334.513,75.512 334.425 C 63.749 334.339,63.738 334.350,64.478 345.989 C 64.839 351.672,64.472 352.554,61.196 353.867 C 58.762 354.842,57.894 354.633,56.010 352.616 L 55.020 351.557 54.960 341.078 C 54.869 325.320,54.044 326.168,69.583 326.051 C 75.623 326.005,80.648 325.885,80.749 325.784 C 81.130 325.403,83.069 325.658,84.994 326.341 M305.456 344.324 C 304.009 344.416,303.466 344.626,303.330 345.146 C 303.230 345.530,302.635 346.038,302.009 346.274 C 298.697 347.524,298.768 353.253,302.126 355.756 C 303.919 357.092,331.266 356.977,333.165 355.625 C 336.365 353.346,336.573 348.248,333.583 345.384 L 332.347 344.200 319.874 344.200 C 313.013 344.200,306.525 344.256,305.456 344.324 M332.680 347.300 C 334.747 349.569,334.871 351.036,333.159 352.986 L 331.917 354.400 317.600 354.400 L 303.283 354.400 302.041 352.986 C 299.357 349.929,301.364 347.251,306.400 347.169 C 308.050 347.142,310.930 346.986,312.800 346.822 C 321.317 346.075,331.794 346.327,332.680 347.300 " stroke="none" fill="#dc8463" fill-rule="evenodd"></path><path id="path3" d="M184.000 53.225 C 170.543 53.931,146.433 57.277,139.400 59.415 C 137.640 59.950,133.992 60.828,131.293 61.366 C 128.594 61.904,125.174 62.876,123.693 63.527 C 122.212 64.178,119.882 65.130,118.515 65.643 C 113.274 67.608,113.758 61.923,114.010 118.600 L 114.220 165.800 115.473 170.400 C 116.161 172.930,117.202 177.430,117.786 180.400 C 118.511 184.091,119.202 186.433,119.968 187.800 C 120.585 188.900,121.577 191.510,122.173 193.600 C 122.769 195.690,123.962 198.693,124.824 200.273 C 125.686 201.853,126.778 204.193,127.250 205.473 C 127.723 206.753,128.717 208.636,129.458 209.659 C 130.200 210.681,131.246 212.508,131.781 213.719 C 132.317 214.930,133.269 216.524,133.898 217.260 C 134.527 217.997,135.662 219.590,136.421 220.800 C 137.179 222.010,138.655 223.947,139.700 225.104 C 140.745 226.262,141.600 227.402,141.600 227.639 C 141.600 228.027,144.395 231.093,147.323 233.917 C 147.941 234.513,149.291 235.820,150.323 236.823 C 151.355 237.826,153.028 239.210,154.039 239.900 C 155.051 240.590,156.157 241.580,156.497 242.099 C 156.838 242.619,158.203 243.623,159.531 244.331 C 160.859 245.039,162.723 246.270,163.673 247.067 C 164.623 247.863,166.530 249.024,167.912 249.646 C 169.293 250.268,171.026 251.237,171.762 251.798 C 172.499 252.360,174.567 253.355,176.357 254.008 C 178.147 254.661,180.845 255.817,182.351 256.576 C 189.796 260.325,200.108 260.283,206.911 256.477 C 208.060 255.835,210.440 254.805,212.200 254.190 C 213.960 253.575,215.941 252.675,216.602 252.190 C 217.263 251.705,219.153 250.631,220.802 249.804 C 222.451 248.976,224.466 247.700,225.280 246.968 C 226.094 246.236,227.475 245.293,228.348 244.871 C 231.550 243.324,242.363 233.381,245.580 229.027 C 246.485 227.802,247.383 226.800,247.577 226.800 C 247.770 226.800,248.643 225.675,249.517 224.300 C 250.391 222.925,251.593 221.350,252.188 220.800 C 252.783 220.250,253.530 219.179,253.848 218.420 C 254.166 217.661,255.133 216.123,255.998 215.002 C 256.863 213.881,258.221 211.532,259.016 209.782 C 259.812 208.032,260.809 206.228,261.232 205.773 C 261.656 205.318,262.535 203.487,263.186 201.703 C 263.837 199.920,264.995 197.233,265.760 195.731 C 266.525 194.229,267.702 190.971,268.376 188.492 C 269.050 186.012,270.037 183.132,270.571 182.092 C 271.104 181.051,271.926 178.220,272.397 175.800 C 272.869 173.380,273.883 168.730,274.651 165.466 L 276.047 159.532 276.124 114.466 C 276.167 89.209,276.357 69.078,276.556 68.667 C 276.842 68.076,276.465 67.513,274.599 65.748 C 271.477 62.796,270.911 62.556,264.353 61.406 C 261.221 60.856,256.665 59.882,254.229 59.241 C 248.012 57.604,244.479 57.084,224.053 54.795 C 207.235 52.911,197.368 52.524,184.000 53.225 M209.400 53.985 C 211.380 54.184,217.680 54.812,223.400 55.380 C 239.409 56.969,246.038 57.914,253.000 59.600 C 256.520 60.452,260.840 61.355,262.600 61.606 C 268.763 62.487,270.542 63.113,273.219 65.342 L 275.690 67.400 275.630 112.800 L 275.571 158.200 274.420 163.400 C 273.786 166.260,272.793 171.030,272.212 174.000 C 271.631 176.970,270.697 180.390,270.136 181.600 C 269.575 182.810,268.603 185.731,267.975 188.091 C 267.347 190.451,266.211 193.554,265.451 194.987 C 264.691 196.419,263.592 199.023,263.009 200.772 C 262.427 202.522,261.428 204.610,260.790 205.412 C 260.153 206.215,259.267 207.844,258.822 209.033 C 257.971 211.307,256.328 214.150,255.606 214.596 C 255.372 214.741,254.567 216.077,253.817 217.566 C 253.067 219.055,252.016 220.560,251.479 220.911 C 250.943 221.262,249.952 222.530,249.276 223.728 C 248.600 224.925,247.631 226.242,247.123 226.653 C 246.615 227.064,245.429 228.414,244.487 229.654 C 241.916 233.037,230.704 243.202,228.064 244.544 C 227.259 244.953,226.060 245.790,225.400 246.404 C 224.740 247.017,222.670 248.281,220.800 249.212 C 218.930 250.143,216.911 251.314,216.314 251.815 C 215.716 252.315,213.736 253.212,211.914 253.808 C 210.091 254.404,207.828 255.332,206.884 255.872 C 200.136 259.728,187.745 259.800,182.416 256.013 C 181.857 255.616,179.818 254.733,177.885 254.051 C 173.830 252.621,173.016 252.228,171.481 250.950 C 170.865 250.438,169.448 249.700,168.332 249.310 C 167.215 248.919,165.559 247.958,164.651 247.173 C 163.743 246.388,161.920 245.143,160.600 244.407 C 158.286 243.117,155.383 240.754,151.600 237.080 C 150.610 236.118,149.293 235.020,148.673 234.638 C 148.053 234.257,146.996 233.167,146.325 232.215 C 145.655 231.263,144.662 230.247,144.120 229.957 C 143.577 229.667,142.666 228.613,142.094 227.615 C 141.523 226.617,140.310 224.987,139.400 223.994 C 138.489 223.001,137.233 221.291,136.607 220.194 C 135.982 219.097,134.969 217.660,134.356 217.000 C 133.743 216.340,132.768 214.728,132.190 213.418 C 131.611 212.108,130.593 210.348,129.926 209.507 C 129.260 208.666,128.132 206.497,127.421 204.689 C 126.709 202.880,125.550 200.381,124.845 199.135 C 124.140 197.889,123.103 195.192,122.542 193.142 C 121.980 191.091,120.984 188.384,120.329 187.125 C 119.500 185.533,118.839 183.218,118.157 179.518 C 117.618 176.593,116.720 172.400,116.163 170.200 C 115.606 168.000,114.984 164.766,114.782 163.014 C 114.367 159.411,114.230 71.309,114.636 69.302 C 114.959 67.709,116.306 66.815,120.402 65.476 C 122.051 64.936,124.120 64.124,125.000 63.670 C 126.743 62.771,127.992 62.447,134.534 61.198 C 136.917 60.742,140.211 59.931,141.852 59.396 C 145.073 58.344,154.471 56.852,164.400 55.814 C 167.810 55.458,173.030 54.905,176.000 54.585 C 178.970 54.265,182.030 53.941,182.800 53.866 C 185.938 53.557,206.051 53.647,209.400 53.985 M244.600 100.400 C 243.940 100.568,226.030 100.735,204.800 100.770 C 156.220 100.852,160.400 99.891,160.400 110.974 C 160.400 118.338,161.029 120.218,163.796 121.121 C 166.861 122.122,233.130 121.808,234.400 120.787 C 234.950 120.344,236.262 119.335,237.315 118.543 C 238.368 117.752,239.514 116.541,239.861 115.852 C 240.480 114.628,242.199 112.726,246.951 108.011 L 249.302 105.678 249.012 103.354 C 248.615 100.179,247.748 99.599,244.600 100.400 M247.979 102.300 C 248.784 105.200,248.557 106.183,246.798 107.401 C 245.917 108.012,244.824 109.114,244.368 109.851 C 243.913 110.588,242.954 111.688,242.237 112.295 C 241.520 112.903,240.363 114.243,239.665 115.273 C 238.968 116.304,237.814 117.552,237.099 118.048 C 236.385 118.544,235.201 119.462,234.469 120.090 L 233.137 121.231 199.469 121.183 C 157.416 121.123,160.846 122.050,160.865 110.745 C 160.881 100.714,156.592 101.612,204.771 101.553 C 226.017 101.527,243.940 101.368,244.600 101.200 C 247.115 100.560,247.534 100.696,247.979 102.300 M197.161 135.981 C 180.565 136.210,180.746 136.190,179.351 137.975 C 178.741 138.755,178.441 142.845,178.768 145.939 C 179.051 148.609,178.438 150.812,177.106 151.914 C 176.362 152.529,171.024 146.994,169.051 143.562 C 168.173 142.035,167.419 141.322,165.851 140.536 C 164.723 139.971,163.485 139.231,163.100 138.892 C 161.439 137.430,159.733 141.197,160.152 145.400 C 160.479 148.680,160.490 189.891,160.166 195.600 C 159.883 200.565,160.488 202.400,162.407 202.400 C 163.453 202.400,169.049 197.408,169.521 196.054 C 169.956 194.806,173.067 191.025,176.439 187.645 C 180.197 183.878,180.431 182.823,180.165 170.903 C 179.817 155.384,179.069 156.284,192.000 156.672 C 203.211 157.008,204.843 156.571,207.419 152.543 C 208.155 151.392,209.087 150.275,209.489 150.060 C 209.891 149.844,210.905 148.674,211.741 147.460 C 212.578 146.245,213.688 144.972,214.208 144.631 C 215.800 143.589,218.140 139.009,217.598 137.997 C 217.019 136.914,214.829 135.580,213.800 135.683 C 213.360 135.727,205.872 135.861,197.161 135.981 M215.873 137.129 C 217.899 138.220,217.043 140.801,213.241 145.064 C 211.542 146.969,208.916 150.080,205.996 153.645 C 204.025 156.053,202.006 156.376,190.589 156.113 L 180.978 155.891 180.407 157.046 C 179.966 157.936,179.786 160.986,179.618 170.400 C 179.355 185.130,179.948 183.507,171.633 192.250 C 170.770 193.158,169.608 194.800,169.051 195.900 C 168.480 197.026,167.462 198.263,166.719 198.734 C 165.994 199.194,164.709 200.161,163.864 200.884 L 162.329 202.198 161.328 201.035 C 160.481 200.050,160.368 199.621,160.589 198.236 C 161.129 194.841,161.307 149.562,160.793 146.200 C 160.279 142.839,160.795 140.276,162.082 139.795 C 163.340 139.326,167.722 142.146,168.922 144.197 C 169.565 145.296,171.537 147.779,173.305 149.715 L 176.519 153.236 177.620 152.181 C 178.987 150.871,179.477 148.902,179.197 145.844 C 178.626 139.601,179.656 137.214,183.092 136.819 C 186.976 136.373,214.960 136.637,215.873 137.129 M126.400 301.982 C 118.631 302.224,117.916 302.429,117.192 304.626 C 116.573 306.501,116.540 351.167,117.157 352.320 C 118.288 354.432,121.147 354.875,124.030 353.384 C 126.104 352.312,126.089 352.468,126.023 331.835 L 125.961 312.576 126.881 311.738 C 128.443 310.314,129.251 310.162,134.000 310.400 C 138.688 310.635,139.563 310.478,141.032 309.144 C 142.346 307.950,141.955 304.193,140.361 302.700 C 139.048 301.469,140.480 301.543,126.400 301.982 M219.935 301.977 C 219.020 302.156,217.691 302.964,216.392 304.131 C 215.249 305.159,214.149 306.000,213.948 306.000 C 213.747 306.000,213.058 306.827,212.417 307.837 C 211.297 309.604,210.056 310.981,205.133 315.924 C 203.767 317.296,202.517 319.031,201.987 320.293 L 201.107 322.386 202.036 325.018 C 202.547 326.465,203.546 328.327,204.256 329.157 C 204.965 329.986,206.257 332.119,207.126 333.897 C 207.994 335.674,209.240 337.820,209.894 338.665 C 210.549 339.509,211.320 340.830,211.609 341.600 C 211.897 342.370,213.184 344.600,214.467 346.555 C 215.750 348.510,216.806 350.310,216.814 350.555 C 216.872 352.345,221.322 354.584,224.590 354.466 C 227.695 354.355,228.287 354.065,228.988 352.313 L 229.644 350.675 228.064 349.037 C 227.195 348.137,226.104 346.640,225.639 345.711 C 225.175 344.782,224.280 343.432,223.650 342.711 C 223.020 341.990,221.926 340.251,221.220 338.847 C 220.513 337.443,219.230 335.402,218.368 334.311 C 217.505 333.221,216.800 332.089,216.800 331.798 C 216.800 331.506,215.897 329.917,214.794 328.267 C 210.230 321.444,211.024 319.528,222.400 309.900 C 223.719 308.783,225.113 307.095,225.881 305.682 L 227.162 303.326 225.626 302.463 C 224.070 301.588,222.584 301.461,219.935 301.977 M263.400 302.061 C 260.195 302.439,251.225 306.658,249.945 308.388 C 249.458 309.048,248.374 310.041,247.535 310.595 C 246.583 311.225,245.617 312.391,244.961 313.702 C 244.383 314.856,243.507 316.340,243.015 317.000 C 239.127 322.206,238.643 333.969,242.127 338.541 C 242.655 339.233,243.562 340.738,244.143 341.885 C 246.791 347.116,253.392 352.091,259.685 353.600 C 265.456 354.983,274.118 354.133,277.600 351.841 C 283.376 348.039,285.771 345.476,290.490 338.046 C 291.364 336.671,291.999 332.338,291.933 328.200 C 291.888 325.314,291.852 325.475,291.574 329.837 C 291.228 335.247,290.754 337.464,289.695 338.617 C 289.300 339.048,288.012 340.869,286.832 342.665 C 285.235 345.094,283.958 346.476,281.843 348.065 C 280.279 349.239,278.756 350.431,278.458 350.713 C 274.570 354.396,259.424 354.806,254.667 351.357 C 253.970 350.852,252.445 349.776,251.278 348.966 C 248.270 346.878,245.924 344.416,244.783 342.151 C 244.242 341.078,243.297 339.466,242.682 338.570 C 239.434 333.832,239.443 324.039,242.699 318.491 C 243.568 317.011,244.784 314.855,245.403 313.700 C 246.021 312.545,246.672 311.600,246.849 311.600 C 247.026 311.600,248.302 310.557,249.685 309.283 C 251.361 307.738,253.200 306.528,255.200 305.655 C 256.850 304.934,258.740 304.046,259.400 303.682 C 266.520 299.752,282.774 306.067,286.984 314.400 C 287.373 315.170,288.111 316.250,288.624 316.800 C 289.832 318.094,290.827 320.488,291.202 323.000 C 291.473 324.820,291.505 324.866,291.550 323.514 C 291.622 321.371,290.545 318.501,288.806 316.200 C 287.975 315.100,287.001 313.620,286.643 312.911 C 286.284 312.203,285.355 311.191,284.577 310.662 C 283.800 310.134,282.528 308.959,281.751 308.051 C 280.973 307.143,280.173 306.400,279.972 306.400 C 279.771 306.400,277.490 305.427,274.903 304.239 C 269.830 301.907,267.859 301.534,263.400 302.061 M57.487 302.811 L 56.606 303.525 57.823 305.062 C 58.493 305.908,59.450 307.272,59.949 308.093 C 62.146 311.706,64.049 312.140,77.200 312.028 C 88.464 311.932,88.696 311.884,89.883 309.395 C 90.767 307.542,90.040 304.004,88.531 302.817 C 87.046 301.649,58.930 301.643,57.487 302.811 M139.906 302.715 C 140.624 303.268,140.863 303.956,141.057 306.027 C 141.408 309.786,140.860 310.094,134.068 309.959 C 124.529 309.770,125.041 308.472,125.282 332.248 C 125.499 353.703,125.717 352.158,122.288 353.416 C 120.089 354.223,118.882 353.907,117.787 352.237 C 116.946 350.952,116.817 307.970,117.647 305.201 C 118.301 303.018,119.581 302.252,122.159 302.500 C 123.282 302.608,126.630 302.571,129.600 302.417 C 138.623 301.949,138.923 301.958,139.906 302.715 M164.400 302.367 C 162.910 302.525,161.683 302.962,160.600 303.721 C 159.720 304.338,158.370 305.245,157.600 305.736 C 156.830 306.228,155.840 307.220,155.400 307.940 C 154.960 308.661,154.006 310.062,153.281 311.054 C 150.584 314.740,150.514 321.045,153.133 324.188 C 153.940 325.156,154.960 326.545,155.400 327.274 C 155.880 328.070,157.004 328.999,158.214 329.600 C 159.322 330.150,160.852 330.988,161.614 331.462 C 163.787 332.813,166.842 333.539,172.330 334.008 C 178.845 334.564,181.080 335.473,182.340 338.077 C 184.141 341.797,182.798 343.880,176.479 347.171 C 174.073 348.424,173.495 350.997,175.187 352.924 L 176.373 354.275 178.886 353.895 C 182.347 353.371,183.814 352.519,186.917 349.229 C 191.991 343.850,193.407 338.385,190.681 334.704 C 190.150 333.987,189.292 332.628,188.775 331.684 C 188.226 330.682,186.995 329.390,185.817 328.580 C 184.708 327.817,183.344 326.828,182.787 326.383 C 181.342 325.228,178.150 324.487,172.401 323.972 C 159.908 322.851,155.725 315.452,165.588 311.920 C 169.077 310.671,169.951 309.286,169.278 306.076 C 168.871 304.137,167.490 301.875,166.830 302.067 C 166.704 302.104,165.610 302.239,164.400 302.367 M225.211 302.667 C 225.755 303.034,226.243 303.362,226.295 303.396 C 226.658 303.629,223.507 308.585,222.538 309.304 C 212.079 317.072,209.475 322.533,213.785 327.655 C 214.372 328.353,215.455 330.121,216.192 331.585 C 216.929 333.048,217.834 334.496,218.202 334.801 C 218.570 335.107,219.645 336.896,220.591 338.778 C 221.537 340.660,222.710 342.560,223.199 343.000 C 223.687 343.440,224.540 344.700,225.095 345.800 C 225.650 346.900,226.792 348.440,227.634 349.223 L 229.165 350.645 228.404 351.898 C 226.064 355.745,219.161 354.284,216.714 349.424 C 216.043 348.091,215.039 346.460,214.483 345.800 C 213.927 345.140,212.857 343.250,212.106 341.600 C 211.355 339.950,210.314 338.150,209.792 337.600 C 209.271 337.050,208.229 335.250,207.476 333.600 C 206.724 331.950,205.472 329.840,204.694 328.910 C 203.917 327.981,202.903 326.104,202.443 324.740 L 201.605 322.260 202.585 320.120 C 203.138 318.912,204.575 316.970,205.883 315.662 C 207.157 314.388,209.190 312.227,210.400 310.860 C 215.356 305.263,218.286 302.686,220.074 302.353 C 222.535 301.894,224.217 301.997,225.211 302.667 M302.238 302.925 C 301.686 303.477,301.210 304.566,301.058 305.625 C 300.875 306.892,300.976 331.196,301.189 337.319 C 301.275 339.788,307.482 340.507,309.660 338.300 L 310.943 337.000 310.921 321.373 C 310.899 305.128,310.841 304.382,309.484 302.900 C 308.258 301.561,303.587 301.577,302.238 302.925 M88.165 303.171 C 90.107 304.783,90.296 308.784,88.510 310.495 L 87.391 311.567 77.395 311.610 C 64.948 311.665,60.400 310.644,60.400 307.796 C 60.400 307.510,59.770 306.522,59.000 305.600 C 57.480 303.780,57.398 303.562,58.003 302.957 C 58.626 302.334,87.403 302.538,88.165 303.171 M308.813 302.807 C 310.278 303.591,310.487 305.957,310.483 321.737 L 310.479 336.873 309.365 338.037 C 307.874 339.593,304.262 339.734,302.604 338.300 L 301.564 337.400 301.401 322.200 C 301.193 302.827,301.285 302.400,305.688 302.400 C 306.989 302.400,308.395 302.583,308.813 302.807 M168.209 304.161 C 169.935 308.290,169.014 310.584,165.246 311.550 C 162.576 312.234,161.494 313.146,160.436 315.605 L 159.561 317.638 160.481 319.296 C 161.119 320.447,162.113 321.369,163.734 322.315 C 166.140 323.717,166.999 323.901,175.200 324.766 C 180.191 325.293,181.487 325.710,183.373 327.395 C 184.238 328.168,185.086 328.800,185.259 328.800 C 185.818 328.800,188.400 331.267,188.400 331.801 C 188.400 332.086,189.005 333.218,189.743 334.316 C 194.222 340.971,187.591 352.454,178.721 353.402 L 176.042 353.689 175.223 352.344 C 173.842 350.079,174.578 348.980,179.601 345.811 C 182.667 343.876,183.713 342.382,183.459 340.297 C 182.910 335.801,180.213 334.153,172.403 333.542 C 164.480 332.922,157.162 329.807,155.336 326.277 C 155.016 325.658,154.160 324.488,153.433 323.676 C 151.084 321.052,151.140 314.722,153.540 311.661 C 154.170 310.858,155.008 309.511,155.403 308.670 C 155.895 307.619,156.760 306.763,158.160 305.939 C 159.282 305.279,160.812 304.303,161.559 303.770 C 163.848 302.137,167.452 302.349,168.209 304.161 M262.800 310.381 C 258.201 311.000,251.156 316.335,249.406 320.523 C 245.434 330.029,248.994 340.164,257.955 344.861 C 259.360 345.597,260.980 346.462,261.555 346.782 C 263.813 348.040,269.506 347.554,272.233 345.871 C 273.543 345.062,274.867 344.400,275.174 344.400 C 276.342 344.400,282.339 337.719,282.796 335.908 C 283.033 334.969,283.411 333.766,283.635 333.235 C 284.469 331.260,284.538 327.387,283.792 324.537 C 281.181 314.573,272.939 309.015,262.800 310.381 M268.754 310.808 C 277.390 311.929,284.759 321.151,283.771 329.600 C 282.980 336.365,279.528 341.830,274.649 344.039 C 273.522 344.549,272.143 345.274,271.584 345.650 C 269.009 347.385,262.918 347.358,260.400 345.602 C 259.850 345.218,258.410 344.434,257.200 343.860 C 251.937 341.360,248.523 335.600,248.375 328.972 C 248.218 321.923,250.071 318.416,256.430 313.729 C 259.716 311.307,260.916 310.869,265.400 310.461 C 265.620 310.441,267.129 310.597,268.754 310.808 M100.529 312.100 C 99.145 313.638,99.093 314.222,99.020 329.000 C 98.928 347.673,98.909 347.600,103.782 347.600 C 106.815 347.600,107.512 347.003,107.788 344.171 L 107.980 342.200 107.601 343.956 C 106.648 348.375,100.683 348.626,99.711 344.288 C 99.073 341.441,99.353 314.826,100.036 313.396 C 101.548 310.228,106.747 311.203,107.525 314.800 C 107.801 316.078,107.927 316.288,107.957 315.526 C 108.110 311.698,103.009 309.346,100.529 312.100 M108.109 318.400 C 108.109 319.390,108.187 319.795,108.282 319.300 C 108.378 318.805,108.378 317.995,108.282 317.500 C 108.187 317.005,108.109 317.410,108.109 318.400 M107.770 329.400 C 107.771 334.240,107.829 336.165,107.899 333.678 C 107.969 331.191,107.969 327.231,107.898 324.878 C 107.828 322.525,107.770 324.560,107.770 329.400 M80.749 325.784 C 80.648 325.885,75.623 326.005,69.583 326.051 C 54.044 326.168,54.869 325.320,54.960 341.078 L 55.020 351.557 56.010 352.616 C 57.894 354.633,58.762 354.842,61.196 353.867 C 64.472 352.554,64.839 351.672,64.478 345.989 C 63.738 334.350,63.749 334.339,75.512 334.425 C 87.420 334.513,89.007 333.742,87.463 328.624 C 86.888 326.718,81.918 324.616,80.749 325.784 M86.177 328.154 C 89.629 332.752,87.243 334.059,75.485 334.010 C 63.317 333.959,62.636 334.741,63.890 347.310 C 64.289 351.300,64.096 351.723,61.201 353.200 C 59.040 354.302,58.364 354.213,56.824 352.625 L 55.491 351.250 55.482 341.125 C 55.474 331.638,55.526 330.897,56.307 329.373 C 57.719 326.620,57.399 326.693,67.903 326.739 C 73.126 326.761,78.480 326.644,79.800 326.477 C 83.013 326.072,85.008 326.596,86.177 328.154 M108.109 340.400 C 108.109 341.390,108.187 341.795,108.282 341.300 C 108.378 340.805,108.378 339.995,108.282 339.500 C 108.187 339.005,108.109 339.410,108.109 340.400 M312.800 346.822 C 310.930 346.986,308.050 347.142,306.400 347.169 C 301.364 347.251,299.357 349.929,302.041 352.986 L 303.283 354.400 317.600 354.400 L 331.917 354.400 333.159 352.986 C 334.871 351.036,334.747 349.569,332.680 347.300 C 331.794 346.327,321.317 346.075,312.800 346.822 M332.900 348.442 C 334.742 350.402,333.655 353.556,331.106 353.646 C 324.251 353.890,303.646 353.803,303.104 353.529 C 302.156 353.048,301.108 350.922,301.386 350.043 C 302.118 347.737,302.492 347.662,315.007 347.308 C 330.372 346.873,331.492 346.944,332.900 348.442 " stroke="none" fill="#d46c7c" fill-rule="evenodd"></path><path id="path4" d="M182.800 53.866 C 182.030 53.941,178.970 54.265,176.000 54.585 C 173.030 54.905,167.810 55.458,164.400 55.814 C 154.471 56.852,145.073 58.344,141.852 59.396 C 140.211 59.931,136.917 60.742,134.534 61.198 C 127.992 62.447,126.743 62.771,125.000 63.670 C 124.120 64.124,122.051 64.936,120.402 65.476 C 116.306 66.815,114.959 67.709,114.636 69.302 C 114.230 71.309,114.367 159.411,114.782 163.014 C 114.984 164.766,115.606 168.000,116.163 170.200 C 116.720 172.400,117.618 176.593,118.157 179.518 C 118.839 183.218,119.500 185.533,120.329 187.125 C 120.984 188.384,121.980 191.091,122.542 193.142 C 123.103 195.192,124.140 197.889,124.845 199.135 C 125.550 200.381,126.709 202.880,127.421 204.689 C 128.132 206.497,129.260 208.666,129.926 209.507 C 130.593 210.348,131.611 212.108,132.190 213.418 C 132.768 214.728,133.743 216.340,134.356 217.000 C 134.969 217.660,135.982 219.097,136.607 220.194 C 137.233 221.291,138.489 223.001,139.400 223.994 C 140.310 224.987,141.523 226.617,142.094 227.615 C 142.666 228.613,143.577 229.667,144.120 229.957 C 144.662 230.247,145.655 231.263,146.325 232.215 C 146.996 233.167,148.053 234.257,148.673 234.638 C 149.293 235.020,150.610 236.118,151.600 237.080 C 155.383 240.754,158.286 243.117,160.600 244.407 C 161.920 245.143,163.743 246.388,164.651 247.173 C 165.559 247.958,167.215 248.919,168.332 249.310 C 169.448 249.700,170.865 250.438,171.481 250.950 C 173.016 252.228,173.830 252.621,177.885 254.051 C 179.818 254.733,181.857 255.616,182.416 256.013 C 187.745 259.800,200.136 259.728,206.884 255.872 C 207.828 255.332,210.091 254.404,211.914 253.808 C 213.736 253.212,215.716 252.315,216.314 251.815 C 216.911 251.314,218.930 250.143,220.800 249.212 C 222.670 248.281,224.740 247.017,225.400 246.404 C 226.060 245.790,227.259 244.953,228.064 244.544 C 230.704 243.202,241.916 233.037,244.487 229.654 C 245.429 228.414,246.615 227.064,247.123 226.653 C 247.631 226.242,248.600 224.925,249.276 223.728 C 249.952 222.530,250.943 221.262,251.479 220.911 C 252.016 220.560,253.067 219.055,253.817 217.566 C 254.567 216.077,255.372 214.741,255.606 214.596 C 256.328 214.150,257.971 211.307,258.822 209.033 C 259.267 207.844,260.153 206.215,260.790 205.412 C 261.428 204.610,262.427 202.522,263.009 200.772 C 263.592 199.023,264.691 196.419,265.451 194.987 C 266.211 193.554,267.347 190.451,267.975 188.091 C 268.603 185.731,269.575 182.810,270.136 181.600 C 270.697 180.390,271.631 176.970,272.212 174.000 C 272.793 171.030,273.786 166.260,274.420 163.400 L 275.571 158.200 275.630 112.800 L 275.690 67.400 273.219 65.342 C 270.542 63.113,268.763 62.487,262.600 61.606 C 260.840 61.355,256.520 60.452,253.000 59.600 C 246.038 57.914,239.409 56.969,223.400 55.380 C 217.680 54.812,211.380 54.184,209.400 53.985 C 206.051 53.647,185.938 53.557,182.800 53.866 M204.800 55.591 C 207.770 55.802,214.970 56.260,220.800 56.608 C 233.058 57.341,243.650 58.527,245.744 59.402 C 247.750 60.240,251.374 60.962,259.677 62.179 C 264.438 62.876,267.402 63.516,268.737 64.134 C 270.655 65.023,274.810 67.939,274.790 68.382 C 274.785 68.502,274.569 69.320,274.310 70.200 C 273.968 71.363,273.776 84.078,273.607 116.800 L 273.375 161.800 272.043 169.400 C 271.215 174.121,270.446 177.379,270.012 178.000 C 269.071 179.346,268.177 182.196,267.203 186.963 C 266.630 189.762,266.036 191.464,265.178 192.759 C 264.510 193.767,263.417 196.351,262.750 198.500 C 262.082 200.649,261.319 202.631,261.055 202.904 C 259.821 204.177,258.819 206.012,258.206 208.122 C 257.777 209.596,256.948 211.104,255.904 212.311 C 254.371 214.082,252.413 217.635,252.404 218.660 C 252.402 218.914,251.771 219.492,251.001 219.946 C 250.024 220.523,249.311 221.430,248.636 222.958 C 247.971 224.460,247.285 225.342,246.441 225.779 C 245.766 226.128,244.915 226.995,244.551 227.707 C 243.803 229.168,238.272 234.846,236.904 235.558 C 236.411 235.814,235.735 236.551,235.402 237.196 C 235.068 237.841,234.018 238.825,233.067 239.382 C 232.116 239.939,230.791 241.071,230.123 241.898 C 229.310 242.904,228.238 243.634,226.875 244.109 C 225.633 244.542,224.529 245.257,224.038 245.947 C 223.494 246.711,222.057 247.570,219.596 248.602 C 217.587 249.444,215.618 250.559,215.199 251.092 C 214.649 251.791,213.307 252.381,210.320 253.237 C 208.054 253.886,205.330 254.955,204.268 255.612 C 199.456 258.587,187.942 258.671,184.787 255.753 C 183.733 254.779,180.935 253.685,177.253 252.809 C 175.912 252.489,174.785 251.925,174.253 251.305 C 173.478 250.404,169.656 248.400,168.711 248.400 C 167.795 248.400,165.610 247.061,165.389 246.365 C 165.254 245.938,163.890 244.980,162.274 244.174 C 160.693 243.387,158.500 241.875,157.400 240.814 C 156.300 239.753,154.837 238.603,154.148 238.257 C 153.460 237.912,152.536 237.019,152.096 236.274 C 151.616 235.460,150.565 234.564,149.467 234.032 C 148.460 233.545,147.523 232.787,147.383 232.347 C 147.030 231.233,144.830 228.800,144.177 228.800 C 143.880 228.800,143.295 228.026,142.877 227.080 C 142.458 226.134,141.119 224.243,139.901 222.878 C 138.683 221.512,137.309 219.594,136.848 218.614 C 136.388 217.634,135.473 216.434,134.815 215.948 C 134.046 215.379,133.383 214.339,132.957 213.032 C 132.128 210.485,131.304 208.933,129.967 207.400 C 129.392 206.740,128.339 204.490,127.626 202.400 C 126.914 200.310,125.901 198.145,125.375 197.588 C 124.503 196.665,122.823 191.391,122.806 189.522 C 122.803 189.148,122.075 187.441,121.188 185.728 C 119.738 182.926,119.476 181.947,118.587 176.006 C 118.043 172.373,117.294 167.780,116.922 165.800 C 116.324 162.621,116.213 157.149,115.977 119.000 C 115.830 95.240,115.575 75.122,115.410 74.292 C 114.645 70.440,117.480 66.400,120.947 66.400 C 122.474 66.400,125.582 65.321,127.139 64.250 C 128.273 63.470,129.808 63.054,134.000 62.390 C 140.724 61.325,146.016 60.174,147.932 59.360 C 149.893 58.527,159.279 57.339,168.393 56.770 C 172.467 56.515,178.860 56.080,182.600 55.802 C 191.172 55.165,197.913 55.101,204.800 55.591 M246.238 98.696 C 246.071 98.863,227.150 99.090,204.193 99.200 L 162.452 99.400 161.241 100.560 C 159.048 102.662,158.233 117.122,160.109 120.657 C 161.268 122.841,160.533 122.800,198.923 122.800 L 234.527 122.800 236.164 121.074 C 237.064 120.125,238.293 119.043,238.895 118.668 C 239.497 118.294,240.397 117.144,240.895 116.112 C 241.433 114.997,242.287 113.974,243.000 113.591 C 243.660 113.236,244.572 112.238,245.026 111.373 C 245.480 110.508,246.470 109.411,247.226 108.937 C 249.951 107.224,250.263 106.738,250.558 103.750 C 250.709 102.212,250.723 100.665,250.588 100.313 C 250.238 99.400,246.808 98.125,246.238 98.696 M248.061 100.528 C 248.462 100.834,248.835 101.941,249.012 103.354 L 249.302 105.678 246.951 108.011 C 242.199 112.726,240.480 114.628,239.861 115.852 C 239.514 116.541,238.368 117.752,237.315 118.543 C 236.262 119.335,234.950 120.344,234.400 120.787 C 233.130 121.808,166.861 122.122,163.796 121.121 C 161.029 120.218,160.400 118.338,160.400 110.974 C 160.400 99.891,156.220 100.852,204.800 100.770 C 226.030 100.735,243.940 100.568,244.600 100.400 C 246.411 99.939,247.331 99.973,248.061 100.528 M182.265 135.200 C 177.809 135.526,177.418 136.235,177.740 143.388 C 177.976 148.639,177.941 149.064,177.181 150.000 L 176.369 151.000 175.085 149.405 C 174.378 148.527,173.170 147.218,172.400 146.495 C 171.630 145.772,170.460 144.151,169.800 142.893 C 169.010 141.386,168.190 140.413,167.400 140.044 C 166.740 139.736,165.439 138.790,164.509 137.942 C 162.661 136.257,162.481 136.198,161.097 136.828 C 159.125 137.727,159.176 136.834,159.153 170.432 C 159.130 204.354,159.039 202.855,161.168 203.664 C 163.582 204.582,168.865 200.335,170.407 196.236 C 170.778 195.250,171.556 194.258,172.407 193.687 C 173.173 193.172,174.207 191.955,174.705 190.981 C 175.311 189.796,176.116 188.953,177.142 188.430 C 180.610 186.661,181.788 181.202,181.209 169.589 C 180.582 156.994,180.661 156.921,193.773 157.930 C 199.451 158.367,199.865 158.349,202.173 157.553 C 206.982 155.894,206.853 155.981,207.841 153.746 C 208.469 152.325,209.171 151.429,209.984 151.008 C 210.648 150.665,211.546 149.690,211.979 148.842 C 212.721 147.386,214.884 145.200,215.581 145.200 C 215.757 145.200,216.582 143.895,217.415 142.300 C 218.248 140.705,219.102 139.286,219.312 139.148 C 219.816 138.814,218.964 136.234,218.118 135.532 C 217.464 134.989,188.777 134.724,182.265 135.200 M215.874 136.380 C 218.418 137.931,217.500 142.474,214.208 144.631 C 213.688 144.972,212.578 146.245,211.741 147.460 C 210.905 148.674,209.891 149.844,209.489 150.060 C 209.087 150.275,208.155 151.392,207.419 152.543 C 204.843 156.571,203.211 157.008,192.000 156.672 C 179.069 156.284,179.817 155.384,180.165 170.903 C 180.431 182.823,180.197 183.878,176.439 187.645 C 173.067 191.025,169.956 194.806,169.521 196.054 C 169.049 197.408,163.453 202.400,162.407 202.400 C 160.488 202.400,159.883 200.565,160.166 195.600 C 160.490 189.891,160.479 148.680,160.152 145.400 C 159.733 141.197,161.439 137.430,163.100 138.892 C 163.485 139.231,164.723 139.971,165.851 140.536 C 167.419 141.322,168.173 142.035,169.051 143.562 C 171.024 146.994,176.362 152.529,177.106 151.914 C 178.438 150.812,179.051 148.609,178.768 145.939 C 178.441 142.845,178.741 138.755,179.351 137.975 C 180.746 136.190,180.565 136.210,197.161 135.981 C 205.872 135.861,213.360 135.727,213.800 135.683 C 214.240 135.639,215.174 135.953,215.874 136.380 M129.600 302.417 C 126.630 302.571,123.282 302.608,122.159 302.500 C 119.581 302.252,118.301 303.018,117.647 305.201 C 116.817 307.970,116.946 350.952,117.787 352.237 C 118.882 353.907,120.089 354.223,122.288 353.416 C 125.717 352.158,125.499 353.703,125.282 332.248 C 125.041 308.472,124.529 309.770,134.068 309.959 C 140.860 310.094,141.408 309.786,141.057 306.027 C 140.660 301.780,140.835 301.835,129.600 302.417 M220.074 302.353 C 218.286 302.686,215.356 305.263,210.400 310.860 C 209.190 312.227,207.157 314.388,205.883 315.662 C 204.575 316.970,203.138 318.912,202.585 320.120 L 201.605 322.260 202.443 324.740 C 202.903 326.104,203.917 327.981,204.694 328.910 C 205.472 329.840,206.724 331.950,207.476 333.600 C 208.229 335.250,209.271 337.050,209.792 337.600 C 210.314 338.150,211.355 339.950,212.106 341.600 C 212.857 343.250,213.927 345.140,214.483 345.800 C 215.039 346.460,216.043 348.091,216.714 349.424 C 219.161 354.284,226.064 355.745,228.404 351.898 L 229.165 350.645 227.634 349.223 C 226.792 348.440,225.650 346.900,225.095 345.800 C 224.540 344.700,223.687 343.440,223.199 343.000 C 222.710 342.560,221.537 340.660,220.591 338.778 C 219.645 336.896,218.570 335.107,218.202 334.801 C 217.834 334.496,216.929 333.048,216.192 331.585 C 215.455 330.121,214.372 328.353,213.785 327.655 C 209.475 322.533,212.079 317.072,222.538 309.304 C 223.507 308.585,226.658 303.629,226.295 303.396 C 226.243 303.362,225.755 303.034,225.211 302.667 C 224.217 301.997,222.535 301.894,220.074 302.353 M263.173 302.592 C 261.758 302.827,260.060 303.318,259.400 303.682 C 258.740 304.046,256.850 304.934,255.200 305.655 C 253.200 306.528,251.361 307.738,249.685 309.283 C 248.302 310.557,247.026 311.600,246.849 311.600 C 246.672 311.600,246.021 312.545,245.403 313.700 C 244.784 314.855,243.568 317.011,242.699 318.491 C 239.443 324.039,239.434 333.832,242.682 338.570 C 243.297 339.466,244.242 341.078,244.783 342.151 C 245.924 344.416,248.270 346.878,251.278 348.966 C 252.445 349.776,253.970 350.852,254.667 351.357 C 259.424 354.806,274.570 354.396,278.458 350.713 C 278.756 350.431,280.279 349.239,281.843 348.065 C 283.958 346.476,285.235 345.094,286.832 342.665 C 288.012 340.869,289.300 339.048,289.695 338.617 C 292.578 335.476,291.972 320.693,288.811 317.063 C 288.206 316.369,287.388 315.170,286.994 314.400 C 283.523 307.626,270.809 301.323,263.173 302.592 M58.003 302.957 C 57.398 303.562,57.480 303.780,59.000 305.600 C 59.770 306.522,60.400 307.510,60.400 307.796 C 60.400 310.644,64.948 311.665,77.395 311.610 L 87.391 311.567 88.510 310.495 C 90.296 308.784,90.107 304.783,88.165 303.171 C 87.403 302.538,58.626 302.334,58.003 302.957 M302.699 303.100 C 301.387 304.570,301.235 306.802,301.401 322.200 L 301.564 337.400 302.604 338.300 C 304.262 339.734,307.874 339.593,309.365 338.037 L 310.479 336.873 310.483 321.737 C 310.487 305.957,310.278 303.591,308.813 302.807 C 307.501 302.105,303.412 302.301,302.699 303.100 M161.559 303.770 C 160.812 304.303,159.282 305.279,158.160 305.939 C 156.760 306.763,155.895 307.619,155.403 308.670 C 155.008 309.511,154.170 310.858,153.540 311.661 C 151.140 314.722,151.084 321.052,153.433 323.676 C 154.160 324.488,155.016 325.658,155.336 326.277 C 157.162 329.807,164.480 332.922,172.403 333.542 C 180.213 334.153,182.910 335.801,183.459 340.297 C 183.713 342.382,182.667 343.876,179.601 345.811 C 174.578 348.980,173.842 350.079,175.223 352.344 L 176.042 353.689 178.721 353.402 C 182.140 353.037,183.244 352.448,186.247 349.392 C 191.609 343.935,192.790 338.843,189.743 334.316 C 189.005 333.218,188.400 332.086,188.400 331.801 C 188.400 331.267,185.818 328.800,185.259 328.800 C 185.086 328.800,184.238 328.168,183.373 327.395 C 181.487 325.710,180.191 325.293,175.200 324.766 C 166.999 323.901,166.140 323.717,163.734 322.315 C 162.113 321.369,161.119 320.447,160.481 319.296 L 159.561 317.638 160.436 315.605 C 161.494 313.146,162.576 312.234,165.246 311.550 C 169.014 310.584,169.935 308.290,168.209 304.161 C 167.452 302.349,163.848 302.137,161.559 303.770 M224.360 303.167 C 224.824 303.461,224.772 303.750,224.056 304.861 C 223.582 305.597,222.991 306.652,222.745 307.205 C 222.498 307.757,221.474 308.837,220.468 309.605 C 219.463 310.372,217.731 311.961,216.620 313.135 C 215.509 314.309,214.131 315.515,213.558 315.815 C 209.906 317.727,209.924 325.570,213.589 329.400 C 214.221 330.060,215.176 331.600,215.712 332.821 C 216.248 334.043,217.251 335.686,217.941 336.472 C 218.631 337.257,219.739 339.061,220.403 340.480 C 221.067 341.899,222.162 343.586,222.838 344.230 C 223.513 344.873,224.330 346.030,224.653 346.800 C 224.976 347.570,225.784 348.762,226.449 349.449 L 227.657 350.697 226.588 351.538 C 224.597 353.104,219.251 352.604,218.379 350.770 C 218.229 350.457,217.657 349.210,217.107 348.000 C 216.556 346.790,215.466 345.035,214.685 344.101 C 213.904 343.167,212.963 341.492,212.593 340.380 C 212.224 339.268,211.264 337.599,210.461 336.670 C 209.657 335.742,208.467 333.659,207.816 332.041 C 207.074 330.196,206.221 328.796,205.526 328.282 C 204.787 327.736,204.136 326.610,203.563 324.888 L 202.705 322.311 203.617 320.364 C 204.138 319.251,205.334 317.738,206.405 316.834 C 207.437 315.964,208.498 314.746,208.763 314.126 C 209.028 313.507,209.922 312.530,210.751 311.955 C 211.579 311.380,212.570 310.250,212.952 309.445 C 213.360 308.584,214.338 307.556,215.323 306.951 C 216.246 306.385,217.469 305.370,218.043 304.695 C 218.789 303.819,219.588 303.388,220.843 303.185 C 223.378 302.774,223.737 302.772,224.360 303.167 M66.000 303.720 C 67.910 304.161,82.737 304.004,86.586 303.502 C 87.217 303.420,87.548 303.887,88.262 305.867 L 89.153 308.334 88.162 309.403 L 87.172 310.472 75.418 310.336 C 61.985 310.181,61.943 310.169,61.475 306.679 C 61.315 305.488,60.925 304.744,60.125 304.104 L 59.000 303.204 61.400 303.208 C 62.720 303.211,64.790 303.441,66.000 303.720 M139.883 305.800 C 140.567 309.202,140.336 309.333,134.086 309.081 C 128.238 308.846,126.810 309.194,125.014 311.292 L 123.699 312.828 123.875 329.714 C 123.971 339.001,124.226 347.497,124.441 348.594 C 124.888 350.876,124.715 351.108,121.710 352.256 C 120.005 352.907,119.924 352.902,119.130 352.107 C 117.949 350.927,117.858 308.172,119.029 305.243 L 119.726 303.501 122.563 303.731 C 124.123 303.858,126.120 303.808,127.000 303.621 C 127.880 303.434,131.030 303.308,134.000 303.341 L 139.400 303.400 139.883 305.800 M271.263 304.526 C 272.438 305.089,274.818 306.044,276.552 306.648 C 278.286 307.251,279.854 307.937,280.038 308.173 C 281.814 310.444,282.978 311.577,283.956 311.982 C 284.751 312.311,285.316 312.986,285.756 314.131 C 286.109 315.049,287.130 316.764,288.025 317.943 C 290.224 320.839,290.432 321.515,290.687 326.600 C 290.976 332.361,290.310 336.541,288.912 337.740 C 288.360 338.213,287.447 339.570,286.882 340.755 C 285.725 343.182,281.817 347.269,279.546 348.428 C 278.725 348.847,277.802 349.548,277.494 349.987 C 274.980 353.576,258.055 353.610,254.711 350.033 C 254.073 349.349,252.953 348.540,252.223 348.235 C 249.829 347.235,245.872 342.852,244.862 340.083 C 244.369 338.729,243.592 337.360,243.137 337.041 C 240.691 335.328,240.511 323.030,242.895 320.486 C 243.843 319.473,246.400 314.189,246.400 313.241 C 246.400 313.007,247.097 312.460,247.950 312.026 C 249.305 311.334,251.251 309.484,251.662 308.497 C 251.816 308.127,255.246 306.607,257.762 305.796 C 258.663 305.505,260.480 304.795,261.800 304.218 C 264.841 302.889,268.065 302.993,271.263 304.526 M309.077 305.400 C 309.807 307.505,309.880 336.580,309.158 337.450 C 308.511 338.230,303.469 338.206,302.816 337.419 C 302.111 336.570,302.071 307.202,302.772 305.083 L 303.274 303.565 305.898 303.683 L 308.522 303.800 309.077 305.400 M167.850 306.191 C 168.676 308.812,168.142 309.794,165.645 310.246 C 161.694 310.961,160.517 311.963,159.465 315.505 C 157.807 321.090,162.409 324.835,171.600 325.378 C 178.751 325.802,180.578 326.249,182.434 328.033 C 183.303 328.867,184.416 329.672,184.907 329.821 C 186.092 330.180,187.600 331.590,187.600 332.337 C 187.600 332.666,188.113 333.850,188.740 334.968 C 190.448 338.012,190.687 340.742,189.410 342.624 C 188.854 343.442,188.400 344.465,188.400 344.896 C 188.400 345.712,183.272 351.124,181.726 351.939 C 179.972 352.865,176.042 352.530,175.533 351.412 C 174.947 350.127,175.482 349.473,178.165 348.187 C 183.166 345.791,184.972 342.787,184.006 338.470 C 183.101 334.429,181.065 333.456,171.306 332.403 C 167.366 331.978,166.570 331.729,161.000 329.179 C 160.120 328.776,158.888 328.323,158.263 328.171 C 157.431 327.969,156.935 327.454,156.411 326.247 C 156.018 325.341,155.131 323.895,154.439 323.034 C 153.748 322.172,153.096 321.047,152.991 320.534 C 152.886 320.020,152.707 319.153,152.594 318.607 C 152.349 317.427,153.587 313.703,154.782 312.026 C 155.248 311.370,155.865 310.152,156.152 309.317 C 156.486 308.349,157.095 307.587,157.838 307.210 C 158.477 306.885,159.810 306.165,160.800 305.610 C 161.790 305.054,163.410 304.493,164.400 304.363 C 165.390 304.232,166.416 304.097,166.680 304.063 C 166.943 304.028,167.470 304.986,167.850 306.191 M262.161 309.579 C 258.810 310.103,257.144 310.823,255.222 312.578 C 254.220 313.494,252.675 314.802,251.790 315.484 C 249.935 316.914,248.702 319.156,247.769 322.800 C 247.408 324.209,246.851 325.761,246.532 326.248 C 245.315 328.105,248.083 337.374,250.579 339.800 C 251.484 340.680,252.549 341.912,252.946 342.537 C 253.355 343.181,254.561 344.072,255.733 344.593 C 256.870 345.099,258.209 345.989,258.709 346.570 C 261.149 349.407,272.065 349.267,273.611 346.380 C 273.821 345.986,274.670 345.442,275.497 345.171 C 277.959 344.363,282.663 339.199,283.460 336.429 C 283.812 335.203,284.507 333.480,285.003 332.600 C 286.379 330.161,286.574 327.171,285.466 325.524 C 284.976 324.796,284.340 323.390,284.053 322.400 C 283.124 319.201,281.532 316.032,280.724 315.776 C 280.296 315.640,278.977 314.560,277.793 313.375 C 274.539 310.122,268.335 308.615,262.161 309.579 M272.139 311.076 C 280.379 313.687,286.724 325.918,283.635 333.235 C 283.411 333.766,283.033 334.969,282.796 335.908 C 282.339 337.719,276.342 344.400,275.174 344.400 C 274.867 344.400,273.543 345.062,272.233 345.871 C 269.506 347.554,263.813 348.040,261.555 346.782 C 260.980 346.462,259.360 345.597,257.955 344.861 C 243.900 337.494,244.460 318.934,258.961 311.515 C 261.984 309.969,268.013 309.768,272.139 311.076 M102.004 311.953 C 99.541 312.389,99.473 312.823,99.399 328.596 C 99.314 346.579,99.332 346.665,103.378 347.083 C 107.695 347.528,107.715 347.449,107.718 329.600 C 107.721 310.848,107.749 310.935,102.004 311.953 M106.502 314.200 C 107.551 317.725,106.809 346.257,105.671 346.160 C 105.412 346.138,104.296 346.093,103.190 346.060 C 101.396 346.006,101.133 345.882,100.740 344.900 C 100.090 343.276,100.125 316.244,100.780 314.259 L 101.274 312.764 103.710 312.882 C 106.031 312.994,106.162 313.057,106.502 314.200 M79.800 326.477 C 78.480 326.644,73.126 326.761,67.903 326.739 C 57.399 326.693,57.719 326.620,56.307 329.373 C 55.526 330.897,55.474 331.638,55.482 341.125 L 55.491 351.250 56.824 352.625 C 58.364 354.213,59.040 354.302,61.201 353.200 C 64.096 351.723,64.289 351.300,63.890 347.310 C 62.636 334.741,63.317 333.959,75.485 334.010 C 85.548 334.052,87.952 333.367,87.371 330.624 C 86.672 327.318,84.138 325.930,79.800 326.477 M84.813 329.681 C 87.060 332.784,85.892 333.200,74.938 333.200 C 65.985 333.200,65.067 333.380,63.049 335.526 L 61.898 336.751 62.154 342.475 C 62.296 345.624,62.454 348.808,62.506 349.550 C 62.592 350.780,62.432 350.995,60.716 351.950 L 58.832 353.000 57.764 351.940 L 56.697 350.879 56.689 341.135 C 56.679 328.833,57.090 327.626,61.042 328.365 C 63.459 328.816,79.803 328.283,81.200 327.707 C 82.501 327.171,83.317 327.617,84.813 329.681 M315.007 347.308 C 302.492 347.662,302.118 347.737,301.386 350.043 C 301.108 350.922,302.156 353.048,303.104 353.529 C 303.646 353.803,324.251 353.890,331.106 353.646 C 333.655 353.556,334.742 350.402,332.900 348.442 C 331.492 346.944,330.372 346.873,315.007 347.308 M332.775 349.678 C 333.342 350.689,333.320 350.821,332.420 351.778 L 331.461 352.800 317.656 352.800 C 302.915 352.800,302.000 352.671,302.000 350.592 C 302.000 348.721,303.690 348.544,321.185 348.578 L 332.170 348.600 332.775 349.678 " stroke="none" fill="#cc6084" fill-rule="evenodd"></path></g></svg>