<svg xmlns="http://www.w3.org/2000/svg" version="1.1" xmlns:xlink="http://www.w3.org/1999/xlink" xmlns:svgjs="http://svgjs.dev/svgjs" viewBox="0 0 3.8081491388766913 5.831030281666848"><g transform="matrix(1,0,0,1,0.6831528005608292,3.240060768145911)"><rect width="5.831030281666848" height="5.831030281666848" x="-1.6945933719559076" y="-3.240060768145911" fill="#f7ca4d"></rect><g><path d=" M 0.7497370302623593 1.2713745151581153 Q 0.6151209051279706 1.2713745151581153 0.5001362982423468 1.2265024734466523 Q 0.3851516913567232 1.1816304317351896 0.30101661314773026 1.100299856133163 Q 0.21688153493873732 1.0189692805311366 0.169204990620308 0.9086588446571235 Q 0.12152844630187867 0.7983484087831105 0.12152844630187867 0.6674716204580105 Q 0.12152844630187867 0.5235071533004003 0.17481399583424087 0.4019787069985217 Q 0.22809954536660307 0.28045026069664303 0.32158296559881744 0.18977134307139498 Q 0.4150663858310318 0.09909242544614716 0.5365948321329105 0.04954621272307347 Q 0.6581232784347891 -2.220446049250313e-16 0.7964787403784664 -2.220446049250313e-16 Q 0.8955711658246136 -2.220446049250313e-16 0.9647488967964523 0.011218010427865632 Q 1.0339266277682908 0.022436020855731265 1.0890818457052973 0.04300237330681855 Q 1.1442370636423038 0.06356872575790562 1.196587778972344 0.08974408342292572 L 1.2078057894002097 0.403848375403166 L 1.177891094925901 0.403848375403166 L 1.0432749697915125 0.17948816684585145 Q 0.9703579020103852 0.13087678832510008 0.9180071866803451 0.11218010427865721 Q 0.8656564713503051 0.09348342023221434 0.7964787403784664 0.09348342023221434 Q 0.6581232784347891 0.09348342023221434 0.5496825109654205 0.15705214599011996 Q 0.44124174349605183 0.2206208717480258 0.37954268614279035 0.332800976026683 Q 0.3178436287895289 0.4449810803053402 0.3178436287895289 0.5889455474629504 Q 0.3178436287895289 0.7703033827134462 0.3832820229520789 0.8993105026339021 Q 0.44872041711462896 1.028317622554358 0.5580960187863198 1.0965605193238743 Q 0.6674716204580106 1.1648034160933909 0.8039574139970436 1.1648034160933909 Q 0.8581777977317279 1.1648034160933909 0.9114633472640901 1.158259576677136 Q 0.9647488967964523 1.1517157372608808 1.0189692805311366 1.133019053214438 L 1.0189692805311366 0.8133057560202649 L 0.852568792517795 0.7366493514298491 L 0.852568792517795 0.7067346569555405 L 1.346161251343887 0.7067346569555405 L 1.346161251343887 0.7366493514298491 L 1.215284463018787 0.8189147612341978 L 1.215284463018787 1.114322369167995 Q 1.159194410879458 1.1629337476887467 1.0806683378843982 1.197522613174666 Q 1.002142264889338 1.2321114786605853 0.9161375182757008 1.2517429969093503 Q 0.8301327716620636 1.2713745151581153 0.7497370302623593 1.2713745151581153 M 1.9276555129090314 1.2713745151581153 Q 1.8098664034164413 1.2713745151581153 1.7266661594097705 1.2489384943023838 Q 1.6434659154030997 1.2265024734466523 1.5555915003848182 1.1835001001398338 L 1.5368948163383753 0.8750048133735264 L 1.5668095108126838 0.8750048133735264 L 1.6659019362588312 1.0787986694797538 Q 1.7313403304213812 1.133019053214438 1.794909056179287 1.1573247424748137 Q 1.8584777819371927 1.1816304317351896 1.9220465076950985 1.1816304317351896 Q 2.030487275164467 1.1816304317351896 2.0931211667200507 1.125540379595861 Q 2.155755058275634 1.0694503274565323 2.155755058275634 0.9722275704150294 Q 2.155755058275634 0.8955711658246135 2.121166192789715 0.8497642899108284 Q 2.0865773273037957 0.8039574139970435 2.018334430534279 0.7674988801064798 Q 1.9500915337647629 0.7310403462159162 1.8509991083186157 0.6824289676951648 Q 1.7182526515888712 0.618860241937259 1.6472052522123883 0.5487476767630982 Q 1.5761578528359053 0.47863511158893746 1.5761578528359053 0.3514976600731259 Q 1.5761578528359053 0.28418959750593153 1.6088770499171803 0.2215557059503479 Q 1.6415962469984553 0.15892181439476438 1.697686299137784 0.10937560167169069 Q 1.7537763512771125 0.059829388948617 1.8229540822489514 0.0299146944743085 Q 1.8921318132207898 -2.220446049250313e-16 1.9669185494065613 -2.220446049250313e-16 Q 2.054792964424843 -2.220446049250313e-16 2.1314493690152587 0.020566352451087067 Q 2.2081057736056744 0.04113270490217413 2.282892509791446 0.08039574139970429 L 2.3015891938378887 0.3795426861427902 L 2.2716744993635802 0.3795426861427902 L 2.174451742322077 0.17948816684585145 Q 2.11462235337346 0.13274645672974428 2.0660109748527087 0.11218010427865721 Q 2.0173995963319573 0.09161375182756992 1.9557005389786957 0.09161375182756992 Q 1.8753047975789914 0.09161375182756992 1.822019248046629 0.14583413556225433 Q 1.768733698514267 0.20005451929693852 1.768733698514267 0.2823199291012872 Q 1.768733698514267 0.37393368092885737 1.8257585848559177 0.42628439625889736 Q 1.8827834711975684 0.47863511158893746 2.00992092271338 0.5384645005375547 Q 2.1221010269920373 0.592684884272239 2.195952928975487 0.6422310969953126 Q 2.269804830958936 0.6917773097183862 2.3053285306471776 0.7534763670716477 Q 2.340852230335419 0.8151754244249092 2.340852230335419 0.9105285130617677 Q 2.340852230335419 0.9984029280800493 2.3034588622425334 1.0657109906472437 Q 2.2660654941496476 1.133019053214438 2.204366436796386 1.178825929128223 Q 2.1426673794431244 1.224632805042008 2.0706851458643194 1.2480036601000617 Q 1.9987029122855144 1.2713745151581153 1.9276555129090314 1.2713745151581153" fill="#fffcf7" fill-rule="nonzero"></path></g><g><path d=" M 1.0360425574517351 2.200064714335737 Q 0.9640425574517353 2.200064714335737 0.9074175574517352 2.168564714335737 Q 0.8507925574517352 2.1370647143357373 0.8185425574517352 2.082689714335737 Q 0.7862925574517352 2.028314714335737 0.7862925574517352 1.9585647143357372 Q 0.7862925574517352 1.9008147143357372 0.8069175574517352 1.8520647143357372 Q 0.8275425574517352 1.803314714335737 0.8646675574517352 1.766939714335737 Q 0.9017925574517353 1.7305647143357372 0.9497925574517352 1.7103147143357371 Q 0.9977925574517352 1.6900647143357372 1.0532925574517353 1.6900647143357372 Q 1.0922925574517353 1.6900647143357372 1.1200425574517352 1.6945647143357372 Q 1.1477925574517354 1.6990647143357371 1.1695425574517353 1.7073147143357372 Q 1.1912925574517352 1.715564714335737 1.2130425574517352 1.7260647143357373 L 1.2167925574517353 1.849814714335737 L 1.2047925574517353 1.849814714335737 L 1.1560425574517352 1.7658147143357372 Q 1.1245425574517351 1.744064714335737 1.1024175574517352 1.7358147143357372 Q 1.0802925574517352 1.727564714335737 1.0517925574517353 1.727564714335737 Q 0.9940425574517352 1.727564714335737 0.9490425574517352 1.7526897143357372 Q 0.9040425574517352 1.7778147143357372 0.8785425574517352 1.8216897143357371 Q 0.8530425574517352 1.8655647143357372 0.8530425574517352 1.9210647143357371 Q 0.8530425574517352 1.9960647143357373 0.8804175574517352 2.048564714335737 Q 0.9077925574517353 2.1010647143357373 0.9542925574517352 2.128814714335737 Q 1.0007925574517351 2.156564714335737 1.0577925574517353 2.156564714335737 Q 1.082542557451735 2.156564714335737 1.105417557451735 2.153564714335737 Q 1.1282925574517353 2.1505647143357374 1.1530425574517351 2.140814714335737 L 1.1530425574517351 2.017064714335737 L 1.0862925574517353 1.9870647143357372 L 1.0862925574517353 1.9750647143357372 L 1.2722925574517352 1.9750647143357372 L 1.2722925574517352 1.9870647143357372 L 1.2205425574517352 2.0193147143357373 L 1.2205425574517352 2.1370647143357373 Q 1.1860425574517353 2.165564714335737 1.1354175574517353 2.1828147143357373 Q 1.0847925574517352 2.200064714335737 1.0360425574517351 2.200064714335737 M 1.5077965857720477 2.200064714335737 Q 1.4612965857720477 2.200064714335737 1.4290465857720478 2.191439714335737 Q 1.3967965857720477 2.1828147143357373 1.3622965857720477 2.165564714335737 L 1.3547965857720476 2.0425647143357373 L 1.3667965857720477 2.0425647143357373 L 1.4035465857720477 2.122064714335737 Q 1.4305465857720476 2.144564714335737 1.4560465857720477 2.154689714335737 Q 1.4815465857720478 2.164814714335737 1.5077965857720477 2.164814714335737 Q 1.5520465857720478 2.164814714335737 1.5771715857720476 2.141564714335737 Q 1.6022965857720477 2.118314714335737 1.6022965857720477 2.0785647143357373 Q 1.6022965857720477 2.0455647143357374 1.5876715857720476 2.026814714335737 Q 1.5730465857720477 2.0080647143357373 1.5456715857720478 1.9934397143357372 Q 1.5182965857720476 1.978814714335737 1.4807965857720478 1.9600647143357373 Q 1.4455465857720478 1.9420647143357372 1.4207965857720477 1.9248147143357373 Q 1.3960465857720477 1.907564714335737 1.3832965857720476 1.884689714335737 Q 1.3705465857720478 1.861814714335737 1.3705465857720478 1.8273147143357371 Q 1.3705465857720478 1.8018147143357373 1.3829215857720478 1.7774397143357372 Q 1.3952965857720476 1.7530647143357372 1.4166715857720478 1.733189714335737 Q 1.4380465857720477 1.7133147143357372 1.4646715857720478 1.7016897143357372 Q 1.4912965857720477 1.6900647143357372 1.5197965857720477 1.6900647143357372 Q 1.5542965857720477 1.6900647143357372 1.5835465857720477 1.698314714335737 Q 1.6127965857720477 1.7065647143357372 1.6435465857720477 1.721564714335737 L 1.6510465857720478 1.8415647143357372 L 1.6390465857720478 1.8415647143357372 L 1.6045465857720478 1.762814714335737 Q 1.5782965857720477 1.7433147143357373 1.5587965857720478 1.7346897143357372 Q 1.5392965857720478 1.7260647143357373 1.5137965857720477 1.7260647143357373 Q 1.4807965857720478 1.7260647143357373 1.4594215857720476 1.7485647143357372 Q 1.4380465857720477 1.7710647143357372 1.4380465857720477 1.8040647143357371 Q 1.4380465857720477 1.8423147143357372 1.4612965857720477 1.8636897143357372 Q 1.4845465857720477 1.885064714335737 1.5340465857720478 1.909064714335737 Q 1.5797965857720477 1.931564714335737 1.6090465857720477 1.9506897143357371 Q 1.6382965857720477 1.9698147143357372 1.6525465857720478 1.9945647143357372 Q 1.6667965857720477 2.0193147143357373 1.6667965857720477 2.0575647143357374 Q 1.6667965857720477 2.092814714335737 1.6517965857720478 2.119439714335737 Q 1.6367965857720477 2.146064714335737 1.6131715857720477 2.164064714335737 Q 1.5895465857720477 2.1820647143357372 1.5614215857720477 2.191064714335737 Q 1.5332965857720477 2.200064714335737 1.5077965857720477 2.200064714335737" fill="#fffcf7" fill-rule="nonzero"></path></g><g clip-path="url(#SvgjsClipPath1002)"><g clip-path="url(#SvgjsClipPath10008659f394-40ce-4bb8-99fb-aaafb2c102b8)"><path d=" M 1.2171060741973438 -0.7459125378243723 L 0.6220087057063124 -0.2879827141679314 L 1.8198348320487208 -0.2879827141679314 L 1.2171060741973438 -0.7459125378243723 Z" fill="#5b6375" transform="matrix(1,0,0,1,0,0)" fill-rule="nonzero"></path></g><g clip-path="url(#SvgjsClipPath10008659f394-40ce-4bb8-99fb-aaafb2c102b8)"><path d=" M -0.14684506071685902 -2.8491559689607104 L 2.5886885984718924 -2.8491559689607104 C 2.6689924324730327 -2.8491559689607104 2.7340915391306613 -2.7840568623030815 2.7340915391306613 -2.703753028301941 L 2.7340915391306613 -0.7362484344030515 C 2.7340915391306613 -0.6559446004019112 2.6689924324730327 -0.5908454937442822 2.5886885984718924 -0.5908454937442822 L -0.14684506071685902 -0.5908454937442822 C -0.22714889471799932 -0.5908454937442822 -0.29224800137562834 -0.6559446004019112 -0.29224800137562834 -0.7362484344030515 L -0.29224800137562834 -2.703753028301941 C -0.29224800137562834 -2.7840568623030815 -0.22714889471799932 -2.8491559689607104 -0.14684506071685902 -2.8491559689607104 Z" fill="#ffce67" transform="matrix(1,0,0,1,0,0)" fill-rule="nonzero"></path></g><g clip-path="url(#SvgjsClipPath10008659f394-40ce-4bb8-99fb-aaafb2c102b8)"><path d=" M -0.29224800137562834 -1.1179456730184707 L 2.7340915391306613 -1.1179456730184707 L 2.7340915391306613 -1.1179456730184707 L 2.7340915391306613 -0.7318810030491854 C 2.7340851244356847 -0.6539873631839566 2.670938054445908 -0.5908454934800704 2.593044414316693 -0.5908454937442822 L -0.15120087656180536 -0.5908454937442822 C -0.22909905260396024 -0.5908454937442822 -0.29224800137562834 -0.6539944425159501 -0.29224800137562834 -0.7318926185581054 L -0.29224800137562834 -1.1179456730184707 L -0.29224800137562834 -1.1179456730184707 Z" fill="#73bcc4" transform="matrix(1,0,0,1,0,0)" fill-rule="nonzero"></path></g><g clip-path="url(#SvgjsClipPath10008659f394-40ce-4bb8-99fb-aaafb2c102b8)"><path d=" M 0.20014503724602767 -1.782457322814567 L 0.4465796744897128 -1.782457322814567 C 0.48057953721090374 -1.7824573228145668 0.5081418717649548 -1.754894988260516 0.5081418717649548 -1.720895125539325 L 0.5081418717649548 -1.4413562878740478 L 0.5081418717649545 -1.4413562878740478 L 0.13853637793510648 -1.4413562878740478 L 0.13853637793510648 -1.4413562878740478 L 0.13853637793510648 -1.7208486635036457 C 0.13852403862291074 -1.7371920755197918 0.14501096974807692 -1.7528696494853724 0.15656751050619327 -1.7644261902434872 C 0.16812405126430974 -1.7759827310016019 0.18380162522989152 -1.7824696621267655 0.20014503724603266 -1.782457322814567 Z" fill="#ec8457" transform="matrix(1,0,0,1,0,0)" fill-rule="nonzero"></path></g><g clip-path="url(#SvgjsClipPath10008659f394-40ce-4bb8-99fb-aaafb2c102b8)"><path d=" M 1.3864834252666978 -2.086098341488548 L 1.5867231835361117 -2.086098341488548 C 1.6091901780395856 -2.086098341488548 1.6307369829403502 -2.077173362672844 1.6466235471066373 -2.061286798506557 C 1.662510111272925 -2.0454002343402693 1.6714350900886286 -2.0238534294395047 1.6714350900886286 -2.001386434936031 L 1.6714350900886286 -1.4413562878740478 L 1.6714350900886286 -1.4413562878740478 L 1.3017831342231008 -1.4413562878740478 L 1.3017831342231008 -1.4413562878740478 L 1.3017831342231008 -2.001398050444951 C 1.3017831342231008 -2.0238619643239213 1.3107068892654854 -2.0454058147745418 1.3265912751012963 -2.0612902006103524 C 1.342475660937107 -2.077174586446163 1.3640195113877271 -2.086098341488548 1.3864834252666978 -2.086098341488548 Z" fill="#ec8457" transform="matrix(1,0,0,1,0,0)" fill-rule="nonzero"></path></g><g clip-path="url(#SvgjsClipPath10008659f394-40ce-4bb8-99fb-aaafb2c102b8)"><path d=" M 1.9816272557934083 -2.308337873652171 L 2.1548261092973955 -2.308337873652171 C 2.20907192800879 -2.3083378736521705 2.2530468527237058 -2.2643629489372543 2.2530468527237058 -2.21011713022586 L 2.2530468527237058 -1.4413562878740478 L 2.2530468527237058 -1.4413562878740478 L 1.883406512367098 -1.4413562878740478 L 1.883406512367098 -1.4413562878740478 L 1.883406512367098 -2.2101055147169406 C 1.8834034315046155 -2.23615728797572 1.8937502985936274 -2.261143102560038 1.9121705950384085 -2.2795655773747385 C 1.93059089148319 -2.2979880521894387 1.9555754823527156 -2.308337873834375 1.981627255793537 -2.308337873652171 Z" fill="#5b6375" transform="matrix(1,0,0,1,0,0)" fill-rule="nonzero"></path></g><g clip-path="url(#SvgjsClipPath10008659f394-40ce-4bb8-99fb-aaafb2c102b8)"><path d=" M 0.8270921311953068 -2.468957130995953 L 0.9828677213195083 -2.468957130995953 C 1.0112310311225368 -2.468957130995953 1.0384326535990673 -2.457689850047621 1.0584885422976835 -2.437633961349005 C 1.0785444309962995 -2.4175780726503886 1.0898117119446316 -2.390376450173858 1.0898117119446316 -2.3620131403708298 L 1.0898117119446316 -1.4413562878740478 L 1.0898117119446316 -1.4413562878740478 L 0.7201597560791035 -1.4413562878740478 L 0.7201597560791035 -1.4413562878740478 L 0.7201597560791035 -2.36202475587975 C 0.7201661698138335 -2.421079219059397 0.768037668015197 -2.4689507172609675 0.8270921311950754 -2.468957130995953 Z" fill="#5b6375" transform="matrix(1,0,0,1,0,0)" fill-rule="nonzero"></path></g><g clip-path="url(#SvgjsClipPath10008659f394-40ce-4bb8-99fb-aaafb2c102b8)"><path d=" M -0.013266708138504058 -1.4279519905805331 L 2.414374656111599 -1.4279519905805331 Z" fill="#ffffff" transform="matrix(1,0,0,1,0,0)" fill-rule="nonzero"></path></g><g clip-path="url(#SvgjsClipPath10008659f394-40ce-4bb8-99fb-aaafb2c102b8)"><path d=" M 2.4143746561116006 -1.3931054638209648 L -0.013266708138502892 -1.3931054638209648 C -0.0357194476713637 -1.3931054638209648 -0.05392098935800402 -1.4113070055076051 -0.05392098935800402 -1.433759745040466 C -0.05392098935800402 -1.4562124845733266 -0.0357194476713637 -1.4744140262599628 -0.013266708138502892 -1.4744140262599628 L 2.4143746561116006 -1.4744140262599628 C 2.4368273956444613 -1.4744140262599628 2.4550289373311016 -1.4562124845733266 2.4550289373311016 -1.433759745040466 C 2.4550289373311016 -1.4113070055076051 2.4368273956444613 -1.3931054638209648 2.4143746561116006 -1.3931054638209648 Z" fill="#5b6375" transform="matrix(1,0,0,1,0,0)" fill-rule="nonzero"></path></g><g clip-path="url(#SvgjsClipPath10008659f394-40ce-4bb8-99fb-aaafb2c102b8)"><path d=" M 0.2857281069675338 -0.3259770438447842 L 2.1561154307874992 -0.3259770438447842 C 2.1647011312785436 -0.32597704384478465 2.17293518383009 -0.3225663876046405 2.179006190868544 -0.3164953805661872 C 2.185077197906997 -0.31042437352773344 2.1884878541471413 -0.3021903209761869 2.1884878541471413 -0.293604620485143 L 2.1884878541471413 -0.28238403886856034 C 2.188487854147141 -0.27379525775301383 2.1850759741336776 -0.2655582507513228 2.1790027887647474 -0.2594850653823926 C 2.172929603395817 -0.25341188001346193 2.1646925963941266 -0.24999999999999956 2.156103815278579 -0.24999999999999956 L 0.2857281069675338 -0.24999999999999956 C 0.27714240647649 -0.24999999999999956 0.26890835392494317 -0.2534106562401428 0.26283734688648963 -0.259481663278597 C 0.2567663398480359 -0.26555267031705077 0.2533556836078924 -0.2737867228685973 0.2533556836078924 -0.28237242335964075 L 0.2533556836078924 -0.293593004976223 C 0.2533556824464951 -0.31147368060437763 0.2678474324489625 -0.32597063039179863 0.2857281069472303 -0.3259770438447771 Z" fill="#ec8457" transform="matrix(1,0,0,1,0,0)" fill-rule="nonzero"></path></g></g></g><defs><clipPath id="SvgjsClipPath1002"><path d=" M -0.29224800137562834 -2.8491559689607104 h 3.0263395405062896 v 2.5991559689607104 h -3.0263395405062896 Z"></path></clipPath><clipPath id="SvgjsClipPath10008659f394-40ce-4bb8-99fb-aaafb2c102b8"><path d=" M -0.29224800137562834 -2.8491559689607104 L 2.7340915391306613 -2.8491559689607104 L 2.7340915391306613 -0.25 L -0.29224800137562834 -0.25 Z"></path></clipPath></defs></svg>